<svg xmlns="http://www.w3.org/2000/svg" version="1.1" xmlns:xlink="http://www.w3.org/1999/xlink" xmlns:svgjs="http://svgjs.dev/svgjs" width="1440" height="560" preserveAspectRatio="none" viewBox="0 0 1440 560">
    <g mask="url(&quot;#SvgjsMask1422&quot;)" fill="none">
        <g mask="url(&quot;#SvgjsMask1423&quot;)">
            <path d="M292.5 337.5L337.5 292.5L382.5 292.5L427.5 292.5M67.5 292.5L112.5 292.5L157.5 292.5L202.5 292.5L247.5 292.5M-22.5 292.5L22.5 292.5L67.5 292.5L112.5 337.5L157.5 337.5L202.5 337.5L247.5 337.5L292.5 337.5L337.5 337.5L382.5 337.5L427.5 337.5" stroke="rgba(239, 239, 239, 1)" stroke-width="7.5"></path>
            <path d="M416.25 337.5 a11.25 11.25 0 1 0 22.5 0 a11.25 11.25 0 1 0 -22.5 0zM416.25 292.5 a11.25 11.25 0 1 0 22.5 0 a11.25 11.25 0 1 0 -22.5 0zM236.25 292.5 a11.25 11.25 0 1 0 22.5 0 a11.25 11.25 0 1 0 -22.5 0z" fill="rgba(239, 239, 239, 1)"></path>
            <path d="M697.5 247.5L742.5 247.5L787.5 247.5L832.5 247.5M382.5 247.5L427.5 202.5L472.5 202.5L517.5 202.5L562.5 202.5L607.5 202.5M652.5 247.5L697.5 292.5M562.5 247.5L607.5 292.5L652.5 292.5M472.5 247.5L517.5 292.5M-22.5 247.5L22.5 247.5L67.5 247.5L112.5 247.5L157.5 247.5L202.5 247.5L247.5 247.5L292.5 247.5L337.5 247.5L382.5 247.5L427.5 247.5L472.5 247.5L517.5 247.5L562.5 247.5L607.5 247.5L652.5 247.5L697.5 247.5L742.5 292.5L787.5 292.5L832.5 292.5L877.5 292.5" stroke="rgba(255, 146, 0, 1)" stroke-width="7.5"></path>
            <path d="M866.25 292.5 a11.25 11.25 0 1 0 22.5 0 a11.25 11.25 0 1 0 -22.5 0zM821.25 247.5 a11.25 11.25 0 1 0 22.5 0 a11.25 11.25 0 1 0 -22.5 0zM596.25 202.5 a11.25 11.25 0 1 0 22.5 0 a11.25 11.25 0 1 0 -22.5 0zM686.25 292.5 a11.25 11.25 0 1 0 22.5 0 a11.25 11.25 0 1 0 -22.5 0zM641.25 292.5 a11.25 11.25 0 1 0 22.5 0 a11.25 11.25 0 1 0 -22.5 0zM506.25 292.5 a11.25 11.25 0 1 0 22.5 0 a11.25 11.25 0 1 0 -22.5 0z" fill="rgba(255, 146, 0, 1)"></path>
            <path d="M832.5 337.5L877.5 382.5L922.5 382.5L967.5 382.5M472.5 382.5L517.5 337.5L562.5 337.5L607.5 337.5M517.5 382.5L562.5 427.5M607.5 382.5L652.5 382.5L697.5 382.5L742.5 382.5L787.5 382.5M157.5 382.5L202.5 427.5L247.5 427.5M-22.5 337.5L22.5 337.5L67.5 337.5L112.5 382.5L157.5 382.5L202.5 382.5L247.5 382.5L292.5 382.5L337.5 382.5L382.5 382.5L427.5 382.5L472.5 382.5L517.5 382.5L562.5 382.5L607.5 382.5L652.5 337.5L697.5 337.5L742.5 337.5L787.5 337.5L832.5 337.5L877.5 337.5L922.5 337.5" stroke="rgba(239, 239, 239, 1)" stroke-width="7.5"></path>
            <path d="M911.25 337.5 a11.25 11.25 0 1 0 22.5 0 a11.25 11.25 0 1 0 -22.5 0zM956.25 382.5 a11.25 11.25 0 1 0 22.5 0 a11.25 11.25 0 1 0 -22.5 0zM596.25 337.5 a11.25 11.25 0 1 0 22.5 0 a11.25 11.25 0 1 0 -22.5 0zM551.25 427.5 a11.25 11.25 0 1 0 22.5 0 a11.25 11.25 0 1 0 -22.5 0zM776.25 382.5 a11.25 11.25 0 1 0 22.5 0 a11.25 11.25 0 1 0 -22.5 0zM236.25 427.5 a11.25 11.25 0 1 0 22.5 0 a11.25 11.25 0 1 0 -22.5 0z" fill="rgba(239, 239, 239, 1)"></path>
            <path d="M292.5 202.5L337.5 157.5L382.5 157.5L427.5 157.5M-22.5 202.5L22.5 202.5L67.5 202.5L112.5 202.5L157.5 202.5L202.5 202.5L247.5 202.5L292.5 202.5L337.5 202.5" stroke="rgba(239, 239, 239, 1)" stroke-width="7.5"></path>
            <path d="M326.25 202.5 a11.25 11.25 0 1 0 22.5 0 a11.25 11.25 0 1 0 -22.5 0zM416.25 157.5 a11.25 11.25 0 1 0 22.5 0 a11.25 11.25 0 1 0 -22.5 0z" fill="rgba(239, 239, 239, 1)"></path>
            <path d="M607.5 472.5L652.5 427.5M292.5 472.5L337.5 472.5L382.5 472.5L427.5 472.5L472.5 472.5M22.5 382.5L67.5 427.5M472.5 427.5L517.5 427.5M-22.5 382.5L22.5 382.5L67.5 382.5L112.5 427.5L157.5 472.5L202.5 472.5L247.5 472.5L292.5 472.5L337.5 427.5L382.5 427.5L427.5 427.5L472.5 427.5L517.5 472.5L562.5 472.5L607.5 472.5L652.5 472.5L697.5 472.5L742.5 472.5" stroke="rgba(255, 146, 0, 1)" stroke-width="7.5"></path>
            <path d="M731.25 472.5 a11.25 11.25 0 1 0 22.5 0 a11.25 11.25 0 1 0 -22.5 0zM641.25 427.5 a11.25 11.25 0 1 0 22.5 0 a11.25 11.25 0 1 0 -22.5 0zM461.25 472.5 a11.25 11.25 0 1 0 22.5 0 a11.25 11.25 0 1 0 -22.5 0zM56.25 427.5 a11.25 11.25 0 1 0 22.5 0 a11.25 11.25 0 1 0 -22.5 0zM506.25 427.5 a11.25 11.25 0 1 0 22.5 0 a11.25 11.25 0 1 0 -22.5 0z" fill="rgba(255, 146, 0, 1)"></path>
            <path d="M157.5 157.5L202.5 112.5L247.5 112.5M22.5 157.5L67.5 112.5L112.5 112.5L157.5 112.5M517.5 112.5L562.5 157.5M652.5 157.5L697.5 112.5L742.5 112.5L787.5 157.5L832.5 157.5L877.5 202.5M-22.5 157.5L22.5 157.5L67.5 157.5L112.5 157.5L157.5 157.5L202.5 157.5L247.5 157.5L292.5 112.5L337.5 112.5L382.5 112.5L427.5 112.5L472.5 112.5L517.5 112.5L562.5 112.5L607.5 157.5L652.5 157.5L697.5 157.5L742.5 157.5" stroke="rgba(239, 239, 239, 1)" stroke-width="7.5"></path>
            <path d="M731.25 157.5 a11.25 11.25 0 1 0 22.5 0 a11.25 11.25 0 1 0 -22.5 0zM236.25 112.5 a11.25 11.25 0 1 0 22.5 0 a11.25 11.25 0 1 0 -22.5 0zM146.25 112.5 a11.25 11.25 0 1 0 22.5 0 a11.25 11.25 0 1 0 -22.5 0zM551.25 157.5 a11.25 11.25 0 1 0 22.5 0 a11.25 11.25 0 1 0 -22.5 0zM866.25 202.5 a11.25 11.25 0 1 0 22.5 0 a11.25 11.25 0 1 0 -22.5 0z" fill="rgba(239, 239, 239, 1)"></path>
        </g>
    </g>
    <defs>
        <mask id="SvgjsMask1422">
            <rect width="1440" height="560" fill="#ffffff"></rect>
        </mask>
        <mask id="SvgjsMask1423">
            <rect width="1440" height="560" fill="white"></rect>
            <path d="M421.87 337.5 a5.63 5.63 0 1 0 11.26 0 a5.63 5.63 0 1 0 -11.26 0zM421.87 292.5 a5.63 5.63 0 1 0 11.26 0 a5.63 5.63 0 1 0 -11.26 0zM241.87 292.5 a5.63 5.63 0 1 0 11.26 0 a5.63 5.63 0 1 0 -11.26 0z" fill="black"></path>
            <path d="M871.87 292.5 a5.63 5.63 0 1 0 11.26 0 a5.63 5.63 0 1 0 -11.26 0zM826.87 247.5 a5.63 5.63 0 1 0 11.26 0 a5.63 5.63 0 1 0 -11.26 0zM601.87 202.5 a5.63 5.63 0 1 0 11.26 0 a5.63 5.63 0 1 0 -11.26 0zM691.87 292.5 a5.63 5.63 0 1 0 11.26 0 a5.63 5.63 0 1 0 -11.26 0zM646.87 292.5 a5.63 5.63 0 1 0 11.26 0 a5.63 5.63 0 1 0 -11.26 0zM511.87 292.5 a5.63 5.63 0 1 0 11.26 0 a5.63 5.63 0 1 0 -11.26 0z" fill="black"></path>
            <path d="M916.87 337.5 a5.63 5.63 0 1 0 11.26 0 a5.63 5.63 0 1 0 -11.26 0zM961.87 382.5 a5.63 5.63 0 1 0 11.26 0 a5.63 5.63 0 1 0 -11.26 0zM601.87 337.5 a5.63 5.63 0 1 0 11.26 0 a5.63 5.63 0 1 0 -11.26 0zM556.87 427.5 a5.63 5.63 0 1 0 11.26 0 a5.63 5.63 0 1 0 -11.26 0zM781.87 382.5 a5.63 5.63 0 1 0 11.26 0 a5.63 5.63 0 1 0 -11.26 0zM241.87 427.5 a5.63 5.63 0 1 0 11.26 0 a5.63 5.63 0 1 0 -11.26 0z" fill="black"></path>
            <path d="M331.87 202.5 a5.63 5.63 0 1 0 11.26 0 a5.63 5.63 0 1 0 -11.26 0zM421.87 157.5 a5.63 5.63 0 1 0 11.26 0 a5.63 5.63 0 1 0 -11.26 0z" fill="black"></path>
            <path d="M736.87 472.5 a5.63 5.63 0 1 0 11.26 0 a5.63 5.63 0 1 0 -11.26 0zM646.87 427.5 a5.63 5.63 0 1 0 11.26 0 a5.63 5.63 0 1 0 -11.26 0zM466.87 472.5 a5.63 5.63 0 1 0 11.26 0 a5.63 5.63 0 1 0 -11.26 0zM61.87 427.5 a5.63 5.63 0 1 0 11.26 0 a5.63 5.63 0 1 0 -11.26 0zM511.87 427.5 a5.63 5.63 0 1 0 11.26 0 a5.63 5.63 0 1 0 -11.26 0z" fill="black"></path>
            <path d="M736.87 157.5 a5.63 5.63 0 1 0 11.26 0 a5.63 5.63 0 1 0 -11.26 0zM241.87 112.5 a5.63 5.63 0 1 0 11.26 0 a5.63 5.63 0 1 0 -11.26 0zM151.87 112.5 a5.63 5.63 0 1 0 11.26 0 a5.63 5.63 0 1 0 -11.26 0zM556.87 157.5 a5.63 5.63 0 1 0 11.26 0 a5.63 5.63 0 1 0 -11.26 0zM871.87 202.5 a5.63 5.63 0 1 0 11.26 0 a5.63 5.63 0 1 0 -11.26 0z" fill="black"></path>
        </mask>
    </defs>
</svg>