<svg xmlns="http://www.w3.org/2000/svg" version="1.1" xmlns:xlink="http://www.w3.org/1999/xlink" xmlns:svgjs="http://svgjs.dev/svgjs" width="1920" height="1000" preserveAspectRatio="none" viewBox="0 0 1920 1000">
    <g mask="url(&quot;#SvgjsMask1045&quot;)" fill="none">
        <g mask="url(&quot;#SvgjsMask1046&quot;)">
            <path d="M705 525L915 315L915 75L855 15L795 15" stroke-width="5" stroke="rgba(21, 125, 119, 1)"></path>
            <path d="M697.5 525 a7.5 7.5 0 1 0 15 0 a7.5 7.5 0 1 0 -15 0zM787.5 15 a7.5 7.5 0 1 0 15 0 a7.5 7.5 0 1 0 -15 0z" fill="rgba(21, 125, 119, 1)"></path>
            <path d="M195 525L285 525L615 855L615 1005" stroke-width="5" stroke="rgba(21, 125, 119, 1)"></path>
            <path d="M187.5 525 a7.5 7.5 0 1 0 15 0 a7.5 7.5 0 1 0 -15 0zM607.5 1005 a7.5 7.5 0 1 0 15 0 a7.5 7.5 0 1 0 -15 0z" fill="rgba(21, 125, 119, 1)"></path>
            <path d="M315 675L15 375L15 345L225 135L225 105" stroke-width="5" stroke="rgba(21, 125, 119, 1)"></path>
            <path d="M307.5 675 a7.5 7.5 0 1 0 15 0 a7.5 7.5 0 1 0 -15 0zM217.5 105 a7.5 7.5 0 1 0 15 0 a7.5 7.5 0 1 0 -15 0z" fill="rgba(21, 125, 119, 1)"></path>
            <path d="M1095 435L1485 45L1485 15" stroke-width="5" stroke="rgba(21, 125, 119, 1)"></path>
            <path d="M1087.5 435 a7.5 7.5 0 1 0 15 0 a7.5 7.5 0 1 0 -15 0zM1477.5 15 a7.5 7.5 0 1 0 15 0 a7.5 7.5 0 1 0 -15 0z" fill="rgba(21, 125, 119, 1)"></path>
            <path d="M1905 375L1845 315L1755 315L1605 465L1605 735" stroke-width="5" stroke="rgba(21, 125, 119, 1)"></path>
            <path d="M1897.5 375 a7.5 7.5 0 1 0 15 0 a7.5 7.5 0 1 0 -15 0zM1597.5 735 a7.5 7.5 0 1 0 15 0 a7.5 7.5 0 1 0 -15 0z" fill="rgba(21, 125, 119, 1)"></path>
            <path d="M1545 885L1455 885L1335 765L1335 735L1185 585L1185 405" stroke-width="5" stroke="rgba(21, 125, 119, 1)"></path>
            <path d="M1537.5 885 a7.5 7.5 0 1 0 15 0 a7.5 7.5 0 1 0 -15 0zM1177.5 405 a7.5 7.5 0 1 0 15 0 a7.5 7.5 0 1 0 -15 0z" fill="rgba(21, 125, 119, 1)"></path>
            <path d="M1845 255L1845 285L1905 345" stroke-width="5" stroke="rgba(21, 125, 119, 1)"></path>
            <path d="M1837.5 255 a7.5 7.5 0 1 0 15 0 a7.5 7.5 0 1 0 -15 0zM1897.5 345 a7.5 7.5 0 1 0 15 0 a7.5 7.5 0 1 0 -15 0z" fill="rgba(21, 125, 119, 1)"></path>
            <path d="M495 975L585 975" stroke-width="5" stroke="rgba(21, 125, 119, 1)"></path>
            <path d="M487.5 975 a7.5 7.5 0 1 0 15 0 a7.5 7.5 0 1 0 -15 0zM577.5 975 a7.5 7.5 0 1 0 15 0 a7.5 7.5 0 1 0 -15 0z" fill="rgba(21, 125, 119, 1)"></path>
            <path d="M855 765L795 705L495 705L285 495" stroke-width="5" stroke="rgba(21, 125, 119, 1)"></path>
            <path d="M847.5 765 a7.5 7.5 0 1 0 15 0 a7.5 7.5 0 1 0 -15 0zM277.5 495 a7.5 7.5 0 1 0 15 0 a7.5 7.5 0 1 0 -15 0z" fill="rgba(21, 125, 119, 1)"></path>
            <path d="M1335 585L1455 465L1575 465L1635 405L1635 135" stroke-width="5" stroke="rgba(21, 125, 119, 1)"></path>
            <path d="M1327.5 585 a7.5 7.5 0 1 0 15 0 a7.5 7.5 0 1 0 -15 0zM1627.5 135 a7.5 7.5 0 1 0 15 0 a7.5 7.5 0 1 0 -15 0z" fill="rgba(21, 125, 119, 1)"></path>
            <path d="M1755 765L1635 645L1635 465L1755 345L1845 345L1905 405" stroke-width="5" stroke="rgba(21, 125, 119, 1)"></path>
            <path d="M1747.5 765 a7.5 7.5 0 1 0 15 0 a7.5 7.5 0 1 0 -15 0zM1897.5 405 a7.5 7.5 0 1 0 15 0 a7.5 7.5 0 1 0 -15 0z" fill="rgba(21, 125, 119, 1)"></path>
            <path d="M1275 375L1215 435L1215 585L1485 855L1575 855" stroke-width="5" stroke="rgba(21, 125, 119, 1)"></path>
            <path d="M1267.5 375 a7.5 7.5 0 1 0 15 0 a7.5 7.5 0 1 0 -15 0zM1567.5 855 a7.5 7.5 0 1 0 15 0 a7.5 7.5 0 1 0 -15 0z" fill="rgba(21, 125, 119, 1)"></path>
            <path d="M1365 405L1425 465" stroke-width="5" stroke="rgba(21, 125, 119, 1)"></path>
            <path d="M1357.5 405 a7.5 7.5 0 1 0 15 0 a7.5 7.5 0 1 0 -15 0zM1417.5 465 a7.5 7.5 0 1 0 15 0 a7.5 7.5 0 1 0 -15 0z" fill="rgba(21, 125, 119, 1)"></path>
            <path d="M465 735L195 1005L15 1005" stroke-width="5" stroke="rgba(21, 125, 119, 1)"></path>
            <path d="M457.5 735 a7.5 7.5 0 1 0 15 0 a7.5 7.5 0 1 0 -15 0zM7.5 1005 a7.5 7.5 0 1 0 15 0 a7.5 7.5 0 1 0 -15 0z" fill="rgba(21, 125, 119, 1)"></path>
            <path d="M1035 915L1125 1005L1335 1005L1425 915L1425 885L1275 735" stroke-width="5" stroke="rgba(21, 125, 119, 1)"></path>
            <path d="M1027.5 915 a7.5 7.5 0 1 0 15 0 a7.5 7.5 0 1 0 -15 0zM1267.5 735 a7.5 7.5 0 1 0 15 0 a7.5 7.5 0 1 0 -15 0z" fill="rgba(21, 125, 119, 1)"></path>
            <path d="M675 525L495 345L495 165L645 15L675 15L705 45" stroke-width="5" stroke="rgba(21, 125, 119, 1)"></path>
            <path d="M667.5 525 a7.5 7.5 0 1 0 15 0 a7.5 7.5 0 1 0 -15 0zM697.5 45 a7.5 7.5 0 1 0 15 0 a7.5 7.5 0 1 0 -15 0z" fill="rgba(21, 125, 119, 1)"></path>
            <path d="M345 825L195 975L15 975" stroke-width="5" stroke="rgba(21, 125, 119, 1)"></path>
            <path d="M337.5 825 a7.5 7.5 0 1 0 15 0 a7.5 7.5 0 1 0 -15 0zM7.5 975 a7.5 7.5 0 1 0 15 0 a7.5 7.5 0 1 0 -15 0z" fill="rgba(21, 125, 119, 1)"></path>
            <path d="M405 705L165 945L15 945" stroke-width="5" stroke="rgba(21, 125, 119, 1)"></path>
            <path d="M397.5 705 a7.5 7.5 0 1 0 15 0 a7.5 7.5 0 1 0 -15 0zM7.5 945 a7.5 7.5 0 1 0 15 0 a7.5 7.5 0 1 0 -15 0z" fill="rgba(21, 125, 119, 1)"></path>
            <path d="M405 285L975 855" stroke-width="5" stroke="rgba(21, 125, 119, 1)"></path>
            <path d="M397.5 285 a7.5 7.5 0 1 0 15 0 a7.5 7.5 0 1 0 -15 0zM967.5 855 a7.5 7.5 0 1 0 15 0 a7.5 7.5 0 1 0 -15 0z" fill="rgba(21, 125, 119, 1)"></path>
            <path d="M1095 45L975 45L945 75L945 495" stroke-width="5" stroke="rgba(21, 125, 119, 1)"></path>
            <path d="M1087.5 45 a7.5 7.5 0 1 0 15 0 a7.5 7.5 0 1 0 -15 0zM937.5 495 a7.5 7.5 0 1 0 15 0 a7.5 7.5 0 1 0 -15 0z" fill="rgba(21, 125, 119, 1)"></path>
            <path d="M1575 585L1515 525L1515 495" stroke-width="5" stroke="rgba(21, 125, 119, 1)"></path>
            <path d="M1567.5 585 a7.5 7.5 0 1 0 15 0 a7.5 7.5 0 1 0 -15 0zM1507.5 495 a7.5 7.5 0 1 0 15 0 a7.5 7.5 0 1 0 -15 0z" fill="rgba(21, 125, 119, 1)"></path>
            <path d="M825 765L885 825L915 825L1095 1005" stroke-width="5" stroke="rgba(21, 125, 119, 1)"></path>
            <path d="M817.5 765 a7.5 7.5 0 1 0 15 0 a7.5 7.5 0 1 0 -15 0zM1087.5 1005 a7.5 7.5 0 1 0 15 0 a7.5 7.5 0 1 0 -15 0z" fill="rgba(21, 125, 119, 1)"></path>
            <path d="M75 45L105 15L255 15L405 165L465 165L615 15" stroke-width="5" stroke="rgba(21, 125, 119, 1)"></path>
            <path d="M67.5 45 a7.5 7.5 0 1 0 15 0 a7.5 7.5 0 1 0 -15 0zM607.5 15 a7.5 7.5 0 1 0 15 0 a7.5 7.5 0 1 0 -15 0z" fill="rgba(21, 125, 119, 1)"></path>
            <path d="M1455 615L1455 645L1815 1005L1905 1005" stroke-width="5" stroke="rgba(21, 125, 119, 1)"></path>
            <path d="M1447.5 615 a7.5 7.5 0 1 0 15 0 a7.5 7.5 0 1 0 -15 0zM1897.5 1005 a7.5 7.5 0 1 0 15 0 a7.5 7.5 0 1 0 -15 0z" fill="rgba(21, 125, 119, 1)"></path>
            <path d="M255 135L375 255L375 435L615 675L645 675" stroke-width="5" stroke="rgba(21, 125, 119, 1)"></path>
            <path d="M247.5 135 a7.5 7.5 0 1 0 15 0 a7.5 7.5 0 1 0 -15 0zM637.5 675 a7.5 7.5 0 1 0 15 0 a7.5 7.5 0 1 0 -15 0z" fill="rgba(21, 125, 119, 1)"></path>
            <path d="M1425 945L1455 915L1695 915L1785 1005" stroke-width="5" stroke="rgba(21, 125, 119, 1)"></path>
            <path d="M1417.5 945 a7.5 7.5 0 1 0 15 0 a7.5 7.5 0 1 0 -15 0zM1777.5 1005 a7.5 7.5 0 1 0 15 0 a7.5 7.5 0 1 0 -15 0z" fill="rgba(21, 125, 119, 1)"></path>
            <path d="M1725 975L1695 1005L1605 1005L1545 945L1455 945L1395 1005L1365 1005" stroke-width="5" stroke="rgba(21, 125, 119, 1)"></path>
            <path d="M1717.5 975 a7.5 7.5 0 1 0 15 0 a7.5 7.5 0 1 0 -15 0zM1357.5 1005 a7.5 7.5 0 1 0 15 0 a7.5 7.5 0 1 0 -15 0z" fill="rgba(21, 125, 119, 1)"></path>
            <path d="M225 615L345 735" stroke-width="5" stroke="rgba(21, 125, 119, 1)"></path>
            <path d="M217.5 615 a7.5 7.5 0 1 0 15 0 a7.5 7.5 0 1 0 -15 0zM337.5 735 a7.5 7.5 0 1 0 15 0 a7.5 7.5 0 1 0 -15 0z" fill="rgba(21, 125, 119, 1)"></path>
            <path d="M1035 615L1005 645L795 645L705 555" stroke-width="5" stroke="rgba(21, 125, 119, 1)"></path>
            <path d="M1027.5 615 a7.5 7.5 0 1 0 15 0 a7.5 7.5 0 1 0 -15 0zM697.5 555 a7.5 7.5 0 1 0 15 0 a7.5 7.5 0 1 0 -15 0z" fill="rgba(21, 125, 119, 1)"></path>
            <path d="M135 645L285 795" stroke-width="5" stroke="rgba(21, 125, 119, 1)"></path>
            <path d="M127.5 645 a7.5 7.5 0 1 0 15 0 a7.5 7.5 0 1 0 -15 0zM277.5 795 a7.5 7.5 0 1 0 15 0 a7.5 7.5 0 1 0 -15 0z" fill="rgba(21, 125, 119, 1)"></path>
            <path d="M1155 345L1455 45L1455 15" stroke-width="5" stroke="rgba(21, 125, 119, 1)"></path>
            <path d="M1147.5 345 a7.5 7.5 0 1 0 15 0 a7.5 7.5 0 1 0 -15 0zM1447.5 15 a7.5 7.5 0 1 0 15 0 a7.5 7.5 0 1 0 -15 0z" fill="rgba(21, 125, 119, 1)"></path>
            <path d="M285 405L195 315L195 195L225 165L255 165L345 255L345 285L285 345L285 375L315 405L345 405" stroke-width="5" stroke="rgba(21, 125, 119, 1)"></path>
            <path d="M277.5 405 a7.5 7.5 0 1 0 15 0 a7.5 7.5 0 1 0 -15 0zM337.5 405 a7.5 7.5 0 1 0 15 0 a7.5 7.5 0 1 0 -15 0z" fill="rgba(21, 125, 119, 1)"></path>
            <path d="M135 795L195 735" stroke-width="5" stroke="rgba(21, 125, 119, 1)"></path>
            <path d="M127.5 795 a7.5 7.5 0 1 0 15 0 a7.5 7.5 0 1 0 -15 0zM187.5 735 a7.5 7.5 0 1 0 15 0 a7.5 7.5 0 1 0 -15 0z" fill="rgba(21, 125, 119, 1)"></path>
            <path d="M75 375L195 495L255 495L315 435L345 435L375 465L375 555L495 675L555 675" stroke-width="5" stroke="rgba(21, 125, 119, 1)"></path>
            <path d="M67.5 375 a7.5 7.5 0 1 0 15 0 a7.5 7.5 0 1 0 -15 0zM547.5 675 a7.5 7.5 0 1 0 15 0 a7.5 7.5 0 1 0 -15 0z" fill="rgba(21, 125, 119, 1)"></path>
            <path d="M165 435L75 345L45 345" stroke-width="5" stroke="rgba(21, 125, 119, 1)"></path>
            <path d="M157.5 435 a7.5 7.5 0 1 0 15 0 a7.5 7.5 0 1 0 -15 0zM37.5 345 a7.5 7.5 0 1 0 15 0 a7.5 7.5 0 1 0 -15 0z" fill="rgba(21, 125, 119, 1)"></path>
            <path d="M1245 735L1395 885L1395 915L1335 975L1125 975L1065 915L1065 855" stroke-width="5" stroke="rgba(21, 125, 119, 1)"></path>
            <path d="M1237.5 735 a7.5 7.5 0 1 0 15 0 a7.5 7.5 0 1 0 -15 0zM1057.5 855 a7.5 7.5 0 1 0 15 0 a7.5 7.5 0 1 0 -15 0z" fill="rgba(21, 125, 119, 1)"></path>
            <path d="M1845 825L1905 825" stroke-width="5" stroke="rgba(21, 125, 119, 1)"></path>
            <path d="M1837.5 825 a7.5 7.5 0 1 0 15 0 a7.5 7.5 0 1 0 -15 0zM1897.5 825 a7.5 7.5 0 1 0 15 0 a7.5 7.5 0 1 0 -15 0z" fill="rgba(21, 125, 119, 1)"></path>
            <path d="M465 315L195 45L105 45L15 135L15 255" stroke-width="5" stroke="rgba(21, 125, 119, 1)"></path>
            <path d="M457.5 315 a7.5 7.5 0 1 0 15 0 a7.5 7.5 0 1 0 -15 0zM7.5 255 a7.5 7.5 0 1 0 15 0 a7.5 7.5 0 1 0 -15 0z" fill="rgba(21, 125, 119, 1)"></path>
            <path d="M915 375L915 615" stroke-width="5" stroke="rgba(21, 125, 119, 1)"></path>
            <path d="M907.5 375 a7.5 7.5 0 1 0 15 0 a7.5 7.5 0 1 0 -15 0zM907.5 615 a7.5 7.5 0 1 0 15 0 a7.5 7.5 0 1 0 -15 0z" fill="rgba(21, 125, 119, 1)"></path>
            <path d="M1095 225L1035 285L975 285" stroke-width="5" stroke="rgba(21, 125, 119, 1)"></path>
            <path d="M1087.5 225 a7.5 7.5 0 1 0 15 0 a7.5 7.5 0 1 0 -15 0zM967.5 285 a7.5 7.5 0 1 0 15 0 a7.5 7.5 0 1 0 -15 0z" fill="rgba(21, 125, 119, 1)"></path>
            <path d="M375 75L375 105L405 135L465 135L585 15" stroke-width="5" stroke="rgba(21, 125, 119, 1)"></path>
            <path d="M367.5 75 a7.5 7.5 0 1 0 15 0 a7.5 7.5 0 1 0 -15 0zM577.5 15 a7.5 7.5 0 1 0 15 0 a7.5 7.5 0 1 0 -15 0z" fill="rgba(21, 125, 119, 1)"></path>
            <path d="M1665 795L1695 765L1725 765L1905 945L1905 975" stroke-width="5" stroke="rgba(21, 125, 119, 1)"></path>
            <path d="M1657.5 795 a7.5 7.5 0 1 0 15 0 a7.5 7.5 0 1 0 -15 0zM1897.5 975 a7.5 7.5 0 1 0 15 0 a7.5 7.5 0 1 0 -15 0z" fill="rgba(21, 125, 119, 1)"></path>
            <path d="M45 855L15 885L15 915" stroke-width="5" stroke="rgba(21, 125, 119, 1)"></path>
            <path d="M37.5 855 a7.5 7.5 0 1 0 15 0 a7.5 7.5 0 1 0 -15 0zM7.5 915 a7.5 7.5 0 1 0 15 0 a7.5 7.5 0 1 0 -15 0z" fill="rgba(21, 125, 119, 1)"></path>
            <path d="M495 15L405 105" stroke-width="5" stroke="rgba(21, 125, 119, 1)"></path>
            <path d="M487.5 15 a7.5 7.5 0 1 0 15 0 a7.5 7.5 0 1 0 -15 0zM397.5 105 a7.5 7.5 0 1 0 15 0 a7.5 7.5 0 1 0 -15 0z" fill="rgba(21, 125, 119, 1)"></path>
            <path d="M1245 195L1275 195L1425 45L1425 15" stroke-width="5" stroke="rgba(21, 125, 119, 1)"></path>
            <path d="M1237.5 195 a7.5 7.5 0 1 0 15 0 a7.5 7.5 0 1 0 -15 0zM1417.5 15 a7.5 7.5 0 1 0 15 0 a7.5 7.5 0 1 0 -15 0z" fill="rgba(21, 125, 119, 1)"></path>
            <path d="M1605 75L1485 75L1185 375" stroke-width="5" stroke="rgba(21, 125, 119, 1)"></path>
            <path d="M1597.5 75 a7.5 7.5 0 1 0 15 0 a7.5 7.5 0 1 0 -15 0zM1177.5 375 a7.5 7.5 0 1 0 15 0 a7.5 7.5 0 1 0 -15 0z" fill="rgba(21, 125, 119, 1)"></path>
            <path d="M645 165L525 285L525 315L705 495" stroke-width="5" stroke="rgba(21, 125, 119, 1)"></path>
            <path d="M637.5 165 a7.5 7.5 0 1 0 15 0 a7.5 7.5 0 1 0 -15 0zM697.5 495 a7.5 7.5 0 1 0 15 0 a7.5 7.5 0 1 0 -15 0z" fill="rgba(21, 125, 119, 1)"></path>
            <path d="M765 855L765 1005" stroke-width="5" stroke="rgba(21, 125, 119, 1)"></path>
            <path d="M757.5 855 a7.5 7.5 0 1 0 15 0 a7.5 7.5 0 1 0 -15 0zM757.5 1005 a7.5 7.5 0 1 0 15 0 a7.5 7.5 0 1 0 -15 0z" fill="rgba(21, 125, 119, 1)"></path>
            <path d="M765 825L675 735L525 735" stroke-width="5" stroke="rgba(21, 125, 119, 1)"></path>
            <path d="M757.5 825 a7.5 7.5 0 1 0 15 0 a7.5 7.5 0 1 0 -15 0zM517.5 735 a7.5 7.5 0 1 0 15 0 a7.5 7.5 0 1 0 -15 0z" fill="rgba(21, 125, 119, 1)"></path>
            <path d="M645 405L555 315L555 285L765 75L885 75" stroke-width="5" stroke="rgba(21, 125, 119, 1)"></path>
            <path d="M637.5 405 a7.5 7.5 0 1 0 15 0 a7.5 7.5 0 1 0 -15 0zM877.5 75 a7.5 7.5 0 1 0 15 0 a7.5 7.5 0 1 0 -15 0z" fill="rgba(21, 125, 119, 1)"></path>
            <path d="M1695 735L1635 675" stroke-width="5" stroke="rgba(21, 125, 119, 1)"></path>
            <path d="M1687.5 735 a7.5 7.5 0 1 0 15 0 a7.5 7.5 0 1 0 -15 0zM1627.5 675 a7.5 7.5 0 1 0 15 0 a7.5 7.5 0 1 0 -15 0z" fill="rgba(21, 125, 119, 1)"></path>
            <path d="M1455 675L1365 585" stroke-width="5" stroke="rgba(21, 125, 119, 1)"></path>
            <path d="M1447.5 675 a7.5 7.5 0 1 0 15 0 a7.5 7.5 0 1 0 -15 0zM1357.5 585 a7.5 7.5 0 1 0 15 0 a7.5 7.5 0 1 0 -15 0z" fill="rgba(21, 125, 119, 1)"></path>
            <path d="M975 225L1035 165L1035 75" stroke-width="5" stroke="rgba(21, 125, 119, 1)"></path>
            <path d="M967.5 225 a7.5 7.5 0 1 0 15 0 a7.5 7.5 0 1 0 -15 0zM1027.5 75 a7.5 7.5 0 1 0 15 0 a7.5 7.5 0 1 0 -15 0z" fill="rgba(21, 125, 119, 1)"></path>
            <path d="M1155 105L1155 15" stroke-width="5" stroke="rgba(21, 125, 119, 1)"></path>
            <path d="M1147.5 105 a7.5 7.5 0 1 0 15 0 a7.5 7.5 0 1 0 -15 0zM1147.5 15 a7.5 7.5 0 1 0 15 0 a7.5 7.5 0 1 0 -15 0z" fill="rgba(21, 125, 119, 1)"></path>
            <path d="M1545 15L1575 45L1635 45L1725 135L1725 315L1665 375" stroke-width="5" stroke="rgba(21, 125, 119, 1)"></path>
            <path d="M1537.5 15 a7.5 7.5 0 1 0 15 0 a7.5 7.5 0 1 0 -15 0zM1657.5 375 a7.5 7.5 0 1 0 15 0 a7.5 7.5 0 1 0 -15 0z" fill="rgba(21, 125, 119, 1)"></path>
            <path d="M1605 285L1605 405L1575 435L1425 435L1305 315L1305 285L1425 165" stroke-width="5" stroke="rgba(21, 125, 119, 1)"></path>
            <path d="M1597.5 285 a7.5 7.5 0 1 0 15 0 a7.5 7.5 0 1 0 -15 0zM1417.5 165 a7.5 7.5 0 1 0 15 0 a7.5 7.5 0 1 0 -15 0z" fill="rgba(21, 125, 119, 1)"></path>
            <path d="M885 1005L795 915L795 735" stroke-width="5" stroke="rgba(21, 125, 119, 1)"></path>
            <path d="M877.5 1005 a7.5 7.5 0 1 0 15 0 a7.5 7.5 0 1 0 -15 0zM787.5 735 a7.5 7.5 0 1 0 15 0 a7.5 7.5 0 1 0 -15 0z" fill="rgba(21, 125, 119, 1)"></path>
            <path d="M1095 855L1095 765L1215 645" stroke-width="5" stroke="rgba(21, 125, 119, 1)"></path>
            <path d="M1087.5 855 a7.5 7.5 0 1 0 15 0 a7.5 7.5 0 1 0 -15 0zM1207.5 645 a7.5 7.5 0 1 0 15 0 a7.5 7.5 0 1 0 -15 0z" fill="rgba(21, 125, 119, 1)"></path>
            <path d="M1065 375L975 375" stroke-width="5" stroke="rgba(21, 125, 119, 1)"></path>
            <path d="M1057.5 375 a7.5 7.5 0 1 0 15 0 a7.5 7.5 0 1 0 -15 0zM967.5 375 a7.5 7.5 0 1 0 15 0 a7.5 7.5 0 1 0 -15 0z" fill="rgba(21, 125, 119, 1)"></path>
            <path d="M705 225L825 345L825 375L735 465L705 465L675 435L675 375L585 285" stroke-width="5" stroke="rgba(21, 125, 119, 1)"></path>
            <path d="M697.5 225 a7.5 7.5 0 1 0 15 0 a7.5 7.5 0 1 0 -15 0zM577.5 285 a7.5 7.5 0 1 0 15 0 a7.5 7.5 0 1 0 -15 0z" fill="rgba(21, 125, 119, 1)"></path>
            <path d="M1695 525L1845 375" stroke-width="5" stroke="rgba(21, 125, 119, 1)"></path>
            <path d="M1687.5 525 a7.5 7.5 0 1 0 15 0 a7.5 7.5 0 1 0 -15 0zM1837.5 375 a7.5 7.5 0 1 0 15 0 a7.5 7.5 0 1 0 -15 0z" fill="rgba(21, 125, 119, 1)"></path>
            <path d="M1515 105L1485 105L1455 135L1455 405" stroke-width="5" stroke="rgba(21, 125, 119, 1)"></path>
            <path d="M1507.5 105 a7.5 7.5 0 1 0 15 0 a7.5 7.5 0 1 0 -15 0zM1447.5 405 a7.5 7.5 0 1 0 15 0 a7.5 7.5 0 1 0 -15 0z" fill="rgba(21, 125, 119, 1)"></path>
            <path d="M1485 405L1575 405" stroke-width="5" stroke="rgba(21, 125, 119, 1)"></path>
            <path d="M1477.5 405 a7.5 7.5 0 1 0 15 0 a7.5 7.5 0 1 0 -15 0zM1567.5 405 a7.5 7.5 0 1 0 15 0 a7.5 7.5 0 1 0 -15 0z" fill="rgba(21, 125, 119, 1)"></path>
            <path d="M1875 675L1875 405" stroke-width="5" stroke="rgba(21, 125, 119, 1)"></path>
            <path d="M1867.5 675 a7.5 7.5 0 1 0 15 0 a7.5 7.5 0 1 0 -15 0zM1867.5 405 a7.5 7.5 0 1 0 15 0 a7.5 7.5 0 1 0 -15 0z" fill="rgba(21, 125, 119, 1)"></path>
            <path d="M1155 645L1155 675L1005 825L975 825L825 675" stroke-width="5" stroke="rgba(21, 125, 119, 1)"></path>
            <path d="M1147.5 645 a7.5 7.5 0 1 0 15 0 a7.5 7.5 0 1 0 -15 0zM817.5 675 a7.5 7.5 0 1 0 15 0 a7.5 7.5 0 1 0 -15 0z" fill="rgba(21, 125, 119, 1)"></path>
            <path d="M735 375L705 405L705 435" stroke-width="5" stroke="rgba(21, 125, 119, 1)"></path>
            <path d="M727.5 375 a7.5 7.5 0 1 0 15 0 a7.5 7.5 0 1 0 -15 0zM697.5 435 a7.5 7.5 0 1 0 15 0 a7.5 7.5 0 1 0 -15 0z" fill="rgba(21, 125, 119, 1)"></path>
            <path d="M825 165L825 105" stroke-width="5" stroke="rgba(21, 125, 119, 1)"></path>
            <path d="M817.5 165 a7.5 7.5 0 1 0 15 0 a7.5 7.5 0 1 0 -15 0zM817.5 105 a7.5 7.5 0 1 0 15 0 a7.5 7.5 0 1 0 -15 0z" fill="rgba(21, 125, 119, 1)"></path>
            <path d="M1305 585L1335 615L1335 675L1365 705L1395 705L1425 675" stroke-width="5" stroke="rgba(21, 125, 119, 1)"></path>
            <path d="M1297.5 585 a7.5 7.5 0 1 0 15 0 a7.5 7.5 0 1 0 -15 0zM1417.5 675 a7.5 7.5 0 1 0 15 0 a7.5 7.5 0 1 0 -15 0z" fill="rgba(21, 125, 119, 1)"></path>
            <path d="M1185 75L1185 195L1215 225L1245 225" stroke-width="5" stroke="rgba(21, 125, 119, 1)"></path>
            <path d="M1177.5 75 a7.5 7.5 0 1 0 15 0 a7.5 7.5 0 1 0 -15 0zM1237.5 225 a7.5 7.5 0 1 0 15 0 a7.5 7.5 0 1 0 -15 0z" fill="rgba(21, 125, 119, 1)"></path>
            <path d="M885 195L795 285" stroke-width="5" stroke="rgba(21, 125, 119, 1)"></path>
            <path d="M877.5 195 a7.5 7.5 0 1 0 15 0 a7.5 7.5 0 1 0 -15 0zM787.5 285 a7.5 7.5 0 1 0 15 0 a7.5 7.5 0 1 0 -15 0z" fill="rgba(21, 125, 119, 1)"></path>
            <path d="M1515 135L1605 135L1635 105L1635 75" stroke-width="5" stroke="rgba(21, 125, 119, 1)"></path>
            <path d="M1507.5 135 a7.5 7.5 0 1 0 15 0 a7.5 7.5 0 1 0 -15 0zM1627.5 75 a7.5 7.5 0 1 0 15 0 a7.5 7.5 0 1 0 -15 0z" fill="rgba(21, 125, 119, 1)"></path>
            <path d="M855 345L825 315L825 285L885 225" stroke-width="5" stroke="rgba(21, 125, 119, 1)"></path>
            <path d="M847.5 345 a7.5 7.5 0 1 0 15 0 a7.5 7.5 0 1 0 -15 0zM877.5 225 a7.5 7.5 0 1 0 15 0 a7.5 7.5 0 1 0 -15 0z" fill="rgba(21, 125, 119, 1)"></path>
            <path d="M345 165L345 135L285 75" stroke-width="5" stroke="rgba(21, 125, 119, 1)"></path>
            <path d="M337.5 165 a7.5 7.5 0 1 0 15 0 a7.5 7.5 0 1 0 -15 0zM277.5 75 a7.5 7.5 0 1 0 15 0 a7.5 7.5 0 1 0 -15 0z" fill="rgba(21, 125, 119, 1)"></path>
            <path d="M75 795L165 885L195 885L225 855" stroke-width="5" stroke="rgba(21, 125, 119, 1)"></path>
            <path d="M67.5 795 a7.5 7.5 0 1 0 15 0 a7.5 7.5 0 1 0 -15 0zM217.5 855 a7.5 7.5 0 1 0 15 0 a7.5 7.5 0 1 0 -15 0z" fill="rgba(21, 125, 119, 1)"></path>
            <path d="M1305 465L1275 435L1275 405L1305 375L1335 375" stroke-width="5" stroke="rgba(21, 125, 119, 1)"></path>
            <path d="M1297.5 465 a7.5 7.5 0 1 0 15 0 a7.5 7.5 0 1 0 -15 0zM1327.5 375 a7.5 7.5 0 1 0 15 0 a7.5 7.5 0 1 0 -15 0z" fill="rgba(21, 125, 119, 1)"></path>
            <path d="M1275 915L1245 945L1155 945L1095 885" stroke-width="5" stroke="rgba(21, 125, 119, 1)"></path>
            <path d="M1267.5 915 a7.5 7.5 0 1 0 15 0 a7.5 7.5 0 1 0 -15 0zM1087.5 885 a7.5 7.5 0 1 0 15 0 a7.5 7.5 0 1 0 -15 0z" fill="rgba(21, 125, 119, 1)"></path>
            <path d="M1125 675L1005 795L975 795L885 705L885 675" stroke-width="5" stroke="rgba(21, 125, 119, 1)"></path>
            <path d="M1117.5 675 a7.5 7.5 0 1 0 15 0 a7.5 7.5 0 1 0 -15 0zM877.5 675 a7.5 7.5 0 1 0 15 0 a7.5 7.5 0 1 0 -15 0z" fill="rgba(21, 125, 119, 1)"></path>
            <path d="M1875 735L1875 705L1815 645L1725 645L1695 675" stroke-width="5" stroke="rgba(21, 125, 119, 1)"></path>
            <path d="M1867.5 735 a7.5 7.5 0 1 0 15 0 a7.5 7.5 0 1 0 -15 0zM1687.5 675 a7.5 7.5 0 1 0 15 0 a7.5 7.5 0 1 0 -15 0z" fill="rgba(21, 125, 119, 1)"></path>
            <path d="M1275 855L1335 855L1365 885L1365 915L1335 945L1275 945" stroke-width="5" stroke="rgba(21, 125, 119, 1)"></path>
            <path d="M1267.5 855 a7.5 7.5 0 1 0 15 0 a7.5 7.5 0 1 0 -15 0zM1267.5 945 a7.5 7.5 0 1 0 15 0 a7.5 7.5 0 1 0 -15 0z" fill="rgba(21, 125, 119, 1)"></path>
            <path d="M1755 495L1665 585L1665 645" stroke-width="5" stroke="rgba(21, 125, 119, 1)"></path>
            <path d="M1747.5 495 a7.5 7.5 0 1 0 15 0 a7.5 7.5 0 1 0 -15 0zM1657.5 645 a7.5 7.5 0 1 0 15 0 a7.5 7.5 0 1 0 -15 0z" fill="rgba(21, 125, 119, 1)"></path>
            <path d="M555 765L705 915L735 915" stroke-width="5" stroke="rgba(21, 125, 119, 1)"></path>
            <path d="M547.5 765 a7.5 7.5 0 1 0 15 0 a7.5 7.5 0 1 0 -15 0zM727.5 915 a7.5 7.5 0 1 0 15 0 a7.5 7.5 0 1 0 -15 0z" fill="rgba(21, 125, 119, 1)"></path>
            <path d="M435 915L465 915L555 825" stroke-width="5" stroke="rgba(21, 125, 119, 1)"></path>
            <path d="M427.5 915 a7.5 7.5 0 1 0 15 0 a7.5 7.5 0 1 0 -15 0zM547.5 825 a7.5 7.5 0 1 0 15 0 a7.5 7.5 0 1 0 -15 0z" fill="rgba(21, 125, 119, 1)"></path>
            <path d="M645 765L675 795L705 795L735 825L735 885" stroke-width="5" stroke="rgba(21, 125, 119, 1)"></path>
            <path d="M637.5 765 a7.5 7.5 0 1 0 15 0 a7.5 7.5 0 1 0 -15 0zM727.5 885 a7.5 7.5 0 1 0 15 0 a7.5 7.5 0 1 0 -15 0z" fill="rgba(21, 125, 119, 1)"></path>
            <path d="M885 525L885 375" stroke-width="5" stroke="rgba(21, 125, 119, 1)"></path>
            <path d="M877.5 525 a7.5 7.5 0 1 0 15 0 a7.5 7.5 0 1 0 -15 0zM877.5 375 a7.5 7.5 0 1 0 15 0 a7.5 7.5 0 1 0 -15 0z" fill="rgba(21, 125, 119, 1)"></path>
            <path d="M225 675L225 705L285 765L315 765" stroke-width="5" stroke="rgba(21, 125, 119, 1)"></path>
            <path d="M217.5 675 a7.5 7.5 0 1 0 15 0 a7.5 7.5 0 1 0 -15 0zM307.5 765 a7.5 7.5 0 1 0 15 0 a7.5 7.5 0 1 0 -15 0z" fill="rgba(21, 125, 119, 1)"></path>
            <path d="M645 615L705 675L765 675" stroke-width="5" stroke="rgba(21, 125, 119, 1)"></path>
            <path d="M637.5 615 a7.5 7.5 0 1 0 15 0 a7.5 7.5 0 1 0 -15 0zM757.5 675 a7.5 7.5 0 1 0 15 0 a7.5 7.5 0 1 0 -15 0z" fill="rgba(21, 125, 119, 1)"></path>
            <path d="M795 585L855 525L855 405" stroke-width="5" stroke="rgba(21, 125, 119, 1)"></path>
            <path d="M787.5 585 a7.5 7.5 0 1 0 15 0 a7.5 7.5 0 1 0 -15 0zM847.5 405 a7.5 7.5 0 1 0 15 0 a7.5 7.5 0 1 0 -15 0z" fill="rgba(21, 125, 119, 1)"></path>
            <path d="M45 435L15 465L15 645" stroke-width="5" stroke="rgba(21, 125, 119, 1)"></path>
            <path d="M37.5 435 a7.5 7.5 0 1 0 15 0 a7.5 7.5 0 1 0 -15 0zM7.5 645 a7.5 7.5 0 1 0 15 0 a7.5 7.5 0 1 0 -15 0z" fill="rgba(21, 125, 119, 1)"></path>
            <path d="M105 165L135 135L135 75" stroke-width="5" stroke="rgba(21, 125, 119, 1)"></path>
            <path d="M97.5 165 a7.5 7.5 0 1 0 15 0 a7.5 7.5 0 1 0 -15 0zM127.5 75 a7.5 7.5 0 1 0 15 0 a7.5 7.5 0 1 0 -15 0z" fill="rgba(21, 125, 119, 1)"></path>
            <path d="M1755 855L1695 795" stroke-width="5" stroke="rgba(21, 125, 119, 1)"></path>
            <path d="M1747.5 855 a7.5 7.5 0 1 0 15 0 a7.5 7.5 0 1 0 -15 0zM1687.5 795 a7.5 7.5 0 1 0 15 0 a7.5 7.5 0 1 0 -15 0z" fill="rgba(21, 125, 119, 1)"></path>
            <path d="M765 555L765 495L825 435" stroke-width="5" stroke="rgba(21, 125, 119, 1)"></path>
            <path d="M757.5 555 a7.5 7.5 0 1 0 15 0 a7.5 7.5 0 1 0 -15 0zM817.5 435 a7.5 7.5 0 1 0 15 0 a7.5 7.5 0 1 0 -15 0z" fill="rgba(21, 125, 119, 1)"></path>
            <path d="M1575 615L1455 495" stroke-width="5" stroke="rgba(21, 125, 119, 1)"></path>
            <path d="M1567.5 615 a7.5 7.5 0 1 0 15 0 a7.5 7.5 0 1 0 -15 0zM1447.5 495 a7.5 7.5 0 1 0 15 0 a7.5 7.5 0 1 0 -15 0z" fill="rgba(21, 125, 119, 1)"></path>
            <path d="M795 345L675 225L645 225L615 255L615 285L705 375" stroke-width="5" stroke="rgba(21, 125, 119, 1)"></path>
            <path d="M787.5 345 a7.5 7.5 0 1 0 15 0 a7.5 7.5 0 1 0 -15 0zM697.5 375 a7.5 7.5 0 1 0 15 0 a7.5 7.5 0 1 0 -15 0z" fill="rgba(21, 125, 119, 1)"></path>
            <path d="M465 435L405 435" stroke-width="5" stroke="rgba(21, 125, 119, 1)"></path>
            <path d="M457.5 435 a7.5 7.5 0 1 0 15 0 a7.5 7.5 0 1 0 -15 0zM397.5 435 a7.5 7.5 0 1 0 15 0 a7.5 7.5 0 1 0 -15 0z" fill="rgba(21, 125, 119, 1)"></path>
            <path d="M855 885L855 825L825 795" stroke-width="5" stroke="rgba(21, 125, 119, 1)"></path>
            <path d="M847.5 885 a7.5 7.5 0 1 0 15 0 a7.5 7.5 0 1 0 -15 0zM817.5 795 a7.5 7.5 0 1 0 15 0 a7.5 7.5 0 1 0 -15 0z" fill="rgba(21, 125, 119, 1)"></path>
            <path d="M45 555L105 615L195 615L225 645" stroke-width="5" stroke="rgba(21, 125, 119, 1)"></path>
            <path d="M37.5 555 a7.5 7.5 0 1 0 15 0 a7.5 7.5 0 1 0 -15 0zM217.5 645 a7.5 7.5 0 1 0 15 0 a7.5 7.5 0 1 0 -15 0z" fill="rgba(21, 125, 119, 1)"></path>
            <path d="M1725 855L1725 885L1815 975L1875 975" stroke-width="5" stroke="rgba(21, 125, 119, 1)"></path>
            <path d="M1717.5 855 a7.5 7.5 0 1 0 15 0 a7.5 7.5 0 1 0 -15 0zM1867.5 975 a7.5 7.5 0 1 0 15 0 a7.5 7.5 0 1 0 -15 0z" fill="rgba(21, 125, 119, 1)"></path>
            <path d="M1275 15L1395 15" stroke-width="5" stroke="rgba(21, 125, 119, 1)"></path>
            <path d="M1267.5 15 a7.5 7.5 0 1 0 15 0 a7.5 7.5 0 1 0 -15 0zM1387.5 15 a7.5 7.5 0 1 0 15 0 a7.5 7.5 0 1 0 -15 0z" fill="rgba(21, 125, 119, 1)"></path>
            <path d="M1275 135L1185 45L1185 15" stroke-width="5" stroke="rgba(21, 125, 119, 1)"></path>
            <path d="M1267.5 135 a7.5 7.5 0 1 0 15 0 a7.5 7.5 0 1 0 -15 0zM1177.5 15 a7.5 7.5 0 1 0 15 0 a7.5 7.5 0 1 0 -15 0z" fill="rgba(21, 125, 119, 1)"></path>
            <path d="M855 915L825 885L825 825" stroke-width="5" stroke="rgba(21, 125, 119, 1)"></path>
            <path d="M847.5 915 a7.5 7.5 0 1 0 15 0 a7.5 7.5 0 1 0 -15 0zM817.5 825 a7.5 7.5 0 1 0 15 0 a7.5 7.5 0 1 0 -15 0z" fill="rgba(21, 125, 119, 1)"></path>
            <path d="M795 555L825 525L825 465" stroke-width="5" stroke="rgba(21, 125, 119, 1)"></path>
            <path d="M787.5 555 a7.5 7.5 0 1 0 15 0 a7.5 7.5 0 1 0 -15 0zM817.5 465 a7.5 7.5 0 1 0 15 0 a7.5 7.5 0 1 0 -15 0z" fill="rgba(21, 125, 119, 1)"></path>
            <path d="M15 765L135 765L165 735L165 705L45 585" stroke-width="5" stroke="rgba(21, 125, 119, 1)"></path>
            <path d="M7.5 765 a7.5 7.5 0 1 0 15 0 a7.5 7.5 0 1 0 -15 0zM37.5 585 a7.5 7.5 0 1 0 15 0 a7.5 7.5 0 1 0 -15 0z" fill="rgba(21, 125, 119, 1)"></path>
            <path d="M1785 225L1755 255L1755 285" stroke-width="5" stroke="rgba(21, 125, 119, 1)"></path>
            <path d="M1777.5 225 a7.5 7.5 0 1 0 15 0 a7.5 7.5 0 1 0 -15 0zM1747.5 285 a7.5 7.5 0 1 0 15 0 a7.5 7.5 0 1 0 -15 0z" fill="rgba(21, 125, 119, 1)"></path>
            <path d="M1245 375L1245 345L1275 315" stroke-width="5" stroke="rgba(21, 125, 119, 1)"></path>
            <path d="M1237.5 375 a7.5 7.5 0 1 0 15 0 a7.5 7.5 0 1 0 -15 0zM1267.5 315 a7.5 7.5 0 1 0 15 0 a7.5 7.5 0 1 0 -15 0z" fill="rgba(21, 125, 119, 1)"></path>
            <path d="M405 225L375 195L375 165" stroke-width="5" stroke="rgba(21, 125, 119, 1)"></path>
            <path d="M397.5 225 a7.5 7.5 0 1 0 15 0 a7.5 7.5 0 1 0 -15 0zM367.5 165 a7.5 7.5 0 1 0 15 0 a7.5 7.5 0 1 0 -15 0z" fill="rgba(21, 125, 119, 1)"></path>
            <path d="M75 135L75 225L15 285L15 315" stroke-width="5" stroke="rgba(21, 125, 119, 1)"></path>
            <path d="M67.5 135 a7.5 7.5 0 1 0 15 0 a7.5 7.5 0 1 0 -15 0zM7.5 315 a7.5 7.5 0 1 0 15 0 a7.5 7.5 0 1 0 -15 0z" fill="rgba(21, 125, 119, 1)"></path>
            <path d="M165 795L195 765L225 765L255 795" stroke-width="5" stroke="rgba(21, 125, 119, 1)"></path>
            <path d="M157.5 795 a7.5 7.5 0 1 0 15 0 a7.5 7.5 0 1 0 -15 0zM247.5 795 a7.5 7.5 0 1 0 15 0 a7.5 7.5 0 1 0 -15 0z" fill="rgba(21, 125, 119, 1)"></path>
            <path d="M1215 105L1275 165" stroke-width="5" stroke="rgba(21, 125, 119, 1)"></path>
            <path d="M1207.5 105 a7.5 7.5 0 1 0 15 0 a7.5 7.5 0 1 0 -15 0zM1267.5 165 a7.5 7.5 0 1 0 15 0 a7.5 7.5 0 1 0 -15 0z" fill="rgba(21, 125, 119, 1)"></path>
            <path d="M1185 705L1215 675L1245 675L1275 705" stroke-width="5" stroke="rgba(21, 125, 119, 1)"></path>
            <path d="M1177.5 705 a7.5 7.5 0 1 0 15 0 a7.5 7.5 0 1 0 -15 0zM1267.5 705 a7.5 7.5 0 1 0 15 0 a7.5 7.5 0 1 0 -15 0z" fill="rgba(21, 125, 119, 1)"></path>
            <path d="M945 585L1155 585L1185 615L1185 645" stroke-width="5" stroke="rgba(21, 125, 119, 1)"></path>
            <path d="M937.5 585 a7.5 7.5 0 1 0 15 0 a7.5 7.5 0 1 0 -15 0zM1177.5 645 a7.5 7.5 0 1 0 15 0 a7.5 7.5 0 1 0 -15 0z" fill="rgba(21, 125, 119, 1)"></path>
            <path d="M1575 825L1485 825L1425 765L1425 735L1455 705L1485 705L1575 795" stroke-width="5" stroke="rgba(21, 125, 119, 1)"></path>
            <path d="M1567.5 825 a7.5 7.5 0 1 0 15 0 a7.5 7.5 0 1 0 -15 0zM1567.5 795 a7.5 7.5 0 1 0 15 0 a7.5 7.5 0 1 0 -15 0z" fill="rgba(21, 125, 119, 1)"></path>
            <path d="M345 375L345 315" stroke-width="5" stroke="rgba(21, 125, 119, 1)"></path>
            <path d="M337.5 375 a7.5 7.5 0 1 0 15 0 a7.5 7.5 0 1 0 -15 0zM337.5 315 a7.5 7.5 0 1 0 15 0 a7.5 7.5 0 1 0 -15 0z" fill="rgba(21, 125, 119, 1)"></path>
            <path d="M1695 615L1725 615L1845 495L1845 405" stroke-width="5" stroke="rgba(21, 125, 119, 1)"></path>
            <path d="M1687.5 615 a7.5 7.5 0 1 0 15 0 a7.5 7.5 0 1 0 -15 0zM1837.5 405 a7.5 7.5 0 1 0 15 0 a7.5 7.5 0 1 0 -15 0z" fill="rgba(21, 125, 119, 1)"></path>
            <path d="M165 75L195 105L195 135L105 225" stroke-width="5" stroke="rgba(21, 125, 119, 1)"></path>
            <path d="M157.5 75 a7.5 7.5 0 1 0 15 0 a7.5 7.5 0 1 0 -15 0zM97.5 225 a7.5 7.5 0 1 0 15 0 a7.5 7.5 0 1 0 -15 0z" fill="rgba(21, 125, 119, 1)"></path>
            <path d="M285 1005L585 1005" stroke-width="5" stroke="rgba(21, 125, 119, 1)"></path>
            <path d="M277.5 1005 a7.5 7.5 0 1 0 15 0 a7.5 7.5 0 1 0 -15 0zM577.5 1005 a7.5 7.5 0 1 0 15 0 a7.5 7.5 0 1 0 -15 0z" fill="rgba(21, 125, 119, 1)"></path>
            <path d="M1065 195L1155 195L1215 255" stroke-width="5" stroke="rgba(21, 125, 119, 1)"></path>
            <path d="M1057.5 195 a7.5 7.5 0 1 0 15 0 a7.5 7.5 0 1 0 -15 0zM1207.5 255 a7.5 7.5 0 1 0 15 0 a7.5 7.5 0 1 0 -15 0z" fill="rgba(21, 125, 119, 1)"></path>
            <path d="M1785 285L1785 255L1815 225L1905 225" stroke-width="5" stroke="rgba(21, 125, 119, 1)"></path>
            <path d="M1777.5 285 a7.5 7.5 0 1 0 15 0 a7.5 7.5 0 1 0 -15 0zM1897.5 225 a7.5 7.5 0 1 0 15 0 a7.5 7.5 0 1 0 -15 0z" fill="rgba(21, 125, 119, 1)"></path>
            <path d="M1815 735L1815 825" stroke-width="5" stroke="rgba(21, 125, 119, 1)"></path>
            <path d="M1807.5 735 a7.5 7.5 0 1 0 15 0 a7.5 7.5 0 1 0 -15 0zM1807.5 825 a7.5 7.5 0 1 0 15 0 a7.5 7.5 0 1 0 -15 0z" fill="rgba(21, 125, 119, 1)"></path>
            <path d="M645 585L615 615L585 615L435 465" stroke-width="5" stroke="rgba(21, 125, 119, 1)"></path>
            <path d="M637.5 585 a7.5 7.5 0 1 0 15 0 a7.5 7.5 0 1 0 -15 0zM427.5 465 a7.5 7.5 0 1 0 15 0 a7.5 7.5 0 1 0 -15 0z" fill="rgba(21, 125, 119, 1)"></path>
            <path d="M1785 105L1905 105" stroke-width="5" stroke="rgba(21, 125, 119, 1)"></path>
            <path d="M1777.5 105 a7.5 7.5 0 1 0 15 0 a7.5 7.5 0 1 0 -15 0zM1897.5 105 a7.5 7.5 0 1 0 15 0 a7.5 7.5 0 1 0 -15 0z" fill="rgba(21, 125, 119, 1)"></path>
            <path d="M1065 15L885 15" stroke-width="5" stroke="rgba(21, 125, 119, 1)"></path>
            <path d="M1057.5 15 a7.5 7.5 0 1 0 15 0 a7.5 7.5 0 1 0 -15 0zM877.5 15 a7.5 7.5 0 1 0 15 0 a7.5 7.5 0 1 0 -15 0z" fill="rgba(21, 125, 119, 1)"></path>
            <path d="M495 915L495 945L465 975L255 975" stroke-width="5" stroke="rgba(21, 125, 119, 1)"></path>
            <path d="M487.5 915 a7.5 7.5 0 1 0 15 0 a7.5 7.5 0 1 0 -15 0zM247.5 975 a7.5 7.5 0 1 0 15 0 a7.5 7.5 0 1 0 -15 0z" fill="rgba(21, 125, 119, 1)"></path>
            <path d="M585 765L615 765L705 855L705 885" stroke-width="5" stroke="rgba(21, 125, 119, 1)"></path>
            <path d="M577.5 765 a7.5 7.5 0 1 0 15 0 a7.5 7.5 0 1 0 -15 0zM697.5 885 a7.5 7.5 0 1 0 15 0 a7.5 7.5 0 1 0 -15 0z" fill="rgba(21, 125, 119, 1)"></path>
            <path d="M945 945L1005 1005L1065 1005" stroke-width="5" stroke="rgba(21, 125, 119, 1)"></path>
            <path d="M937.5 945 a7.5 7.5 0 1 0 15 0 a7.5 7.5 0 1 0 -15 0zM1057.5 1005 a7.5 7.5 0 1 0 15 0 a7.5 7.5 0 1 0 -15 0z" fill="rgba(21, 125, 119, 1)"></path>
            <path d="M1515 585L1575 645L1575 735" stroke-width="5" stroke="rgba(21, 125, 119, 1)"></path>
            <path d="M1507.5 585 a7.5 7.5 0 1 0 15 0 a7.5 7.5 0 1 0 -15 0zM1567.5 735 a7.5 7.5 0 1 0 15 0 a7.5 7.5 0 1 0 -15 0z" fill="rgba(21, 125, 119, 1)"></path>
            <path d="M1665 225L1665 345" stroke-width="5" stroke="rgba(21, 125, 119, 1)"></path>
            <path d="M1657.5 225 a7.5 7.5 0 1 0 15 0 a7.5 7.5 0 1 0 -15 0zM1657.5 345 a7.5 7.5 0 1 0 15 0 a7.5 7.5 0 1 0 -15 0z" fill="rgba(21, 125, 119, 1)"></path>
            <path d="M495 405L645 555" stroke-width="5" stroke="rgba(21, 125, 119, 1)"></path>
            <path d="M487.5 405 a7.5 7.5 0 1 0 15 0 a7.5 7.5 0 1 0 -15 0zM637.5 555 a7.5 7.5 0 1 0 15 0 a7.5 7.5 0 1 0 -15 0z" fill="rgba(21, 125, 119, 1)"></path>
            <path d="M165 225L105 285L105 315L255 465" stroke-width="5" stroke="rgba(21, 125, 119, 1)"></path>
            <path d="M157.5 225 a7.5 7.5 0 1 0 15 0 a7.5 7.5 0 1 0 -15 0zM247.5 465 a7.5 7.5 0 1 0 15 0 a7.5 7.5 0 1 0 -15 0z" fill="rgba(21, 125, 119, 1)"></path>
            <path d="M1155 495L1125 495L1065 555L1005 555L975 525L975 405" stroke-width="5" stroke="rgba(21, 125, 119, 1)"></path>
            <path d="M1147.5 495 a7.5 7.5 0 1 0 15 0 a7.5 7.5 0 1 0 -15 0zM967.5 405 a7.5 7.5 0 1 0 15 0 a7.5 7.5 0 1 0 -15 0z" fill="rgba(21, 125, 119, 1)"></path>
            <path d="M1335 465L1335 555" stroke-width="5" stroke="rgba(21, 125, 119, 1)"></path>
            <path d="M1327.5 465 a7.5 7.5 0 1 0 15 0 a7.5 7.5 0 1 0 -15 0zM1327.5 555 a7.5 7.5 0 1 0 15 0 a7.5 7.5 0 1 0 -15 0z" fill="rgba(21, 125, 119, 1)"></path>
            <path d="M525 525L585 525L615 555L615 585" stroke-width="5" stroke="rgba(21, 125, 119, 1)"></path>
            <path d="M517.5 525 a7.5 7.5 0 1 0 15 0 a7.5 7.5 0 1 0 -15 0zM607.5 585 a7.5 7.5 0 1 0 15 0 a7.5 7.5 0 1 0 -15 0z" fill="rgba(21, 125, 119, 1)"></path>
            <path d="M1125 465L1095 465L1065 495L1065 525" stroke-width="5" stroke="rgba(21, 125, 119, 1)"></path>
            <path d="M1117.5 465 a7.5 7.5 0 1 0 15 0 a7.5 7.5 0 1 0 -15 0zM1057.5 525 a7.5 7.5 0 1 0 15 0 a7.5 7.5 0 1 0 -15 0z" fill="rgba(21, 125, 119, 1)"></path>
            <path d="M795 195L855 195" stroke-width="5" stroke="rgba(21, 125, 119, 1)"></path>
            <path d="M787.5 195 a7.5 7.5 0 1 0 15 0 a7.5 7.5 0 1 0 -15 0zM847.5 195 a7.5 7.5 0 1 0 15 0 a7.5 7.5 0 1 0 -15 0z" fill="rgba(21, 125, 119, 1)"></path>
            <path d="M1245 465L1245 555L1305 615L1305 645" stroke-width="5" stroke="rgba(21, 125, 119, 1)"></path>
            <path d="M1237.5 465 a7.5 7.5 0 1 0 15 0 a7.5 7.5 0 1 0 -15 0zM1297.5 645 a7.5 7.5 0 1 0 15 0 a7.5 7.5 0 1 0 -15 0z" fill="rgba(21, 125, 119, 1)"></path>
            <path d="M975 765L915 705L915 675" stroke-width="5" stroke="rgba(21, 125, 119, 1)"></path>
            <path d="M967.5 765 a7.5 7.5 0 1 0 15 0 a7.5 7.5 0 1 0 -15 0zM907.5 675 a7.5 7.5 0 1 0 15 0 a7.5 7.5 0 1 0 -15 0z" fill="rgba(21, 125, 119, 1)"></path>
            <path d="M1515 645L1515 615L1425 525" stroke-width="5" stroke="rgba(21, 125, 119, 1)"></path>
            <path d="M1507.5 645 a7.5 7.5 0 1 0 15 0 a7.5 7.5 0 1 0 -15 0zM1417.5 525 a7.5 7.5 0 1 0 15 0 a7.5 7.5 0 1 0 -15 0z" fill="rgba(21, 125, 119, 1)"></path>
            <path d="M705 645L675 615L675 585" stroke-width="5" stroke="rgba(21, 125, 119, 1)"></path>
            <path d="M697.5 645 a7.5 7.5 0 1 0 15 0 a7.5 7.5 0 1 0 -15 0zM667.5 585 a7.5 7.5 0 1 0 15 0 a7.5 7.5 0 1 0 -15 0z" fill="rgba(21, 125, 119, 1)"></path>
            <path d="M1005 495L1005 405" stroke-width="5" stroke="rgba(21, 125, 119, 1)"></path>
            <path d="M997.5 495 a7.5 7.5 0 1 0 15 0 a7.5 7.5 0 1 0 -15 0zM997.5 405 a7.5 7.5 0 1 0 15 0 a7.5 7.5 0 1 0 -15 0z" fill="rgba(21, 125, 119, 1)"></path>
            <path d="M1005 135L975 165L975 195" stroke-width="5" stroke="rgba(21, 125, 119, 1)"></path>
            <path d="M997.5 135 a7.5 7.5 0 1 0 15 0 a7.5 7.5 0 1 0 -15 0zM967.5 195 a7.5 7.5 0 1 0 15 0 a7.5 7.5 0 1 0 -15 0z" fill="rgba(21, 125, 119, 1)"></path>
            <path d="M405 825L465 885" stroke-width="5" stroke="rgba(21, 125, 119, 1)"></path>
            <path d="M397.5 825 a7.5 7.5 0 1 0 15 0 a7.5 7.5 0 1 0 -15 0zM457.5 885 a7.5 7.5 0 1 0 15 0 a7.5 7.5 0 1 0 -15 0z" fill="rgba(21, 125, 119, 1)"></path>
            <path d="M1305 75L1335 45L1395 45" stroke-width="5" stroke="rgba(21, 125, 119, 1)"></path>
            <path d="M1297.5 75 a7.5 7.5 0 1 0 15 0 a7.5 7.5 0 1 0 -15 0zM1387.5 45 a7.5 7.5 0 1 0 15 0 a7.5 7.5 0 1 0 -15 0z" fill="rgba(21, 125, 119, 1)"></path>
            <path d="M1545 315L1605 255L1605 165" stroke-width="5" stroke="rgba(21, 125, 119, 1)"></path>
            <path d="M1537.5 315 a7.5 7.5 0 1 0 15 0 a7.5 7.5 0 1 0 -15 0zM1597.5 165 a7.5 7.5 0 1 0 15 0 a7.5 7.5 0 1 0 -15 0z" fill="rgba(21, 125, 119, 1)"></path>
            <path d="M525 885L585 885" stroke-width="5" stroke="rgba(21, 125, 119, 1)"></path>
            <path d="M517.5 885 a7.5 7.5 0 1 0 15 0 a7.5 7.5 0 1 0 -15 0zM577.5 885 a7.5 7.5 0 1 0 15 0 a7.5 7.5 0 1 0 -15 0z" fill="rgba(21, 125, 119, 1)"></path>
            <path d="M615 75L645 45L675 45L705 75L705 105L675 135L555 135" stroke-width="5" stroke="rgba(21, 125, 119, 1)"></path>
            <path d="M607.5 75 a7.5 7.5 0 1 0 15 0 a7.5 7.5 0 1 0 -15 0zM547.5 135 a7.5 7.5 0 1 0 15 0 a7.5 7.5 0 1 0 -15 0z" fill="rgba(21, 125, 119, 1)"></path>
            <path d="M1035 405L1035 525" stroke-width="5" stroke="rgba(21, 125, 119, 1)"></path>
            <path d="M1027.5 405 a7.5 7.5 0 1 0 15 0 a7.5 7.5 0 1 0 -15 0zM1027.5 525 a7.5 7.5 0 1 0 15 0 a7.5 7.5 0 1 0 -15 0z" fill="rgba(21, 125, 119, 1)"></path>
            <path d="M1275 465L1305 495L1305 555" stroke-width="5" stroke="rgba(21, 125, 119, 1)"></path>
            <path d="M1267.5 465 a7.5 7.5 0 1 0 15 0 a7.5 7.5 0 1 0 -15 0zM1297.5 555 a7.5 7.5 0 1 0 15 0 a7.5 7.5 0 1 0 -15 0z" fill="rgba(21, 125, 119, 1)"></path>
            <path d="M1095 285L1095 405L1065 435L1065 465" stroke-width="5" stroke="rgba(21, 125, 119, 1)"></path>
            <path d="M1087.5 285 a7.5 7.5 0 1 0 15 0 a7.5 7.5 0 1 0 -15 0zM1057.5 465 a7.5 7.5 0 1 0 15 0 a7.5 7.5 0 1 0 -15 0z" fill="rgba(21, 125, 119, 1)"></path>
            <path d="M765 345L705 345L645 285L645 255" stroke-width="5" stroke="rgba(21, 125, 119, 1)"></path>
            <path d="M757.5 345 a7.5 7.5 0 1 0 15 0 a7.5 7.5 0 1 0 -15 0zM637.5 255 a7.5 7.5 0 1 0 15 0 a7.5 7.5 0 1 0 -15 0z" fill="rgba(21, 125, 119, 1)"></path>
            <path d="M975 915L915 855L885 855" stroke-width="5" stroke="rgba(21, 125, 119, 1)"></path>
            <path d="M967.5 915 a7.5 7.5 0 1 0 15 0 a7.5 7.5 0 1 0 -15 0zM877.5 855 a7.5 7.5 0 1 0 15 0 a7.5 7.5 0 1 0 -15 0z" fill="rgba(21, 125, 119, 1)"></path>
            <path d="M1065 135L1065 75" stroke-width="5" stroke="rgba(21, 125, 119, 1)"></path>
            <path d="M1057.5 135 a7.5 7.5 0 1 0 15 0 a7.5 7.5 0 1 0 -15 0zM1057.5 75 a7.5 7.5 0 1 0 15 0 a7.5 7.5 0 1 0 -15 0z" fill="rgba(21, 125, 119, 1)"></path>
            <path d="M945 915L885 915L855 945" stroke-width="5" stroke="rgba(21, 125, 119, 1)"></path>
            <path d="M937.5 915 a7.5 7.5 0 1 0 15 0 a7.5 7.5 0 1 0 -15 0zM847.5 945 a7.5 7.5 0 1 0 15 0 a7.5 7.5 0 1 0 -15 0z" fill="rgba(21, 125, 119, 1)"></path>
            <path d="M405 765L405 735L435 705" stroke-width="5" stroke="rgba(21, 125, 119, 1)"></path>
            <path d="M397.5 765 a7.5 7.5 0 1 0 15 0 a7.5 7.5 0 1 0 -15 0zM427.5 705 a7.5 7.5 0 1 0 15 0 a7.5 7.5 0 1 0 -15 0z" fill="rgba(21, 125, 119, 1)"></path>
            <path d="M765 165L765 255" stroke-width="5" stroke="rgba(21, 125, 119, 1)"></path>
            <path d="M757.5 165 a7.5 7.5 0 1 0 15 0 a7.5 7.5 0 1 0 -15 0zM757.5 255 a7.5 7.5 0 1 0 15 0 a7.5 7.5 0 1 0 -15 0z" fill="rgba(21, 125, 119, 1)"></path>
            <path d="M1065 645L1065 705L1005 765" stroke-width="5" stroke="rgba(21, 125, 119, 1)"></path>
            <path d="M1057.5 645 a7.5 7.5 0 1 0 15 0 a7.5 7.5 0 1 0 -15 0zM997.5 765 a7.5 7.5 0 1 0 15 0 a7.5 7.5 0 1 0 -15 0z" fill="rgba(21, 125, 119, 1)"></path>
            <path d="M225 375L225 405L255 435" stroke-width="5" stroke="rgba(21, 125, 119, 1)"></path>
            <path d="M217.5 375 a7.5 7.5 0 1 0 15 0 a7.5 7.5 0 1 0 -15 0zM247.5 435 a7.5 7.5 0 1 0 15 0 a7.5 7.5 0 1 0 -15 0z" fill="rgba(21, 125, 119, 1)"></path>
            <path d="M885 555L855 555L825 585" stroke-width="5" stroke="rgba(21, 125, 119, 1)"></path>
            <path d="M877.5 555 a7.5 7.5 0 1 0 15 0 a7.5 7.5 0 1 0 -15 0zM817.5 585 a7.5 7.5 0 1 0 15 0 a7.5 7.5 0 1 0 -15 0z" fill="rgba(21, 125, 119, 1)"></path>
            <path d="M1515 975L1485 975L1455 1005" stroke-width="5" stroke="rgba(21, 125, 119, 1)"></path>
            <path d="M1507.5 975 a7.5 7.5 0 1 0 15 0 a7.5 7.5 0 1 0 -15 0zM1447.5 1005 a7.5 7.5 0 1 0 15 0 a7.5 7.5 0 1 0 -15 0z" fill="rgba(21, 125, 119, 1)"></path>
            <path d="M105 705L105 675L45 615" stroke-width="5" stroke="rgba(21, 125, 119, 1)"></path>
            <path d="M97.5 705 a7.5 7.5 0 1 0 15 0 a7.5 7.5 0 1 0 -15 0zM37.5 615 a7.5 7.5 0 1 0 15 0 a7.5 7.5 0 1 0 -15 0z" fill="rgba(21, 125, 119, 1)"></path>
            <path d="M1845 75L1695 75L1635 15L1575 15" stroke-width="5" stroke="rgba(21, 125, 119, 1)"></path>
            <path d="M1837.5 75 a7.5 7.5 0 1 0 15 0 a7.5 7.5 0 1 0 -15 0zM1567.5 15 a7.5 7.5 0 1 0 15 0 a7.5 7.5 0 1 0 -15 0z" fill="rgba(21, 125, 119, 1)"></path>
            <path d="M1425 345L1365 345L1335 315L1335 285L1425 195" stroke-width="5" stroke="rgba(21, 125, 119, 1)"></path>
            <path d="M1417.5 345 a7.5 7.5 0 1 0 15 0 a7.5 7.5 0 1 0 -15 0zM1417.5 195 a7.5 7.5 0 1 0 15 0 a7.5 7.5 0 1 0 -15 0z" fill="rgba(21, 125, 119, 1)"></path>
            <path d="M255 195L315 255" stroke-width="5" stroke="rgba(21, 125, 119, 1)"></path>
            <path d="M247.5 195 a7.5 7.5 0 1 0 15 0 a7.5 7.5 0 1 0 -15 0zM307.5 255 a7.5 7.5 0 1 0 15 0 a7.5 7.5 0 1 0 -15 0z" fill="rgba(21, 125, 119, 1)"></path>
            <path d="M1815 705L1905 795" stroke-width="5" stroke="rgba(21, 125, 119, 1)"></path>
            <path d="M1807.5 705 a7.5 7.5 0 1 0 15 0 a7.5 7.5 0 1 0 -15 0zM1897.5 795 a7.5 7.5 0 1 0 15 0 a7.5 7.5 0 1 0 -15 0z" fill="rgba(21, 125, 119, 1)"></path>
            <path d="M435 945L375 885L375 855" stroke-width="5" stroke="rgba(21, 125, 119, 1)"></path>
            <path d="M427.5 945 a7.5 7.5 0 1 0 15 0 a7.5 7.5 0 1 0 -15 0zM367.5 855 a7.5 7.5 0 1 0 15 0 a7.5 7.5 0 1 0 -15 0z" fill="rgba(21, 125, 119, 1)"></path>
            <path d="M165 315L195 345L195 375" stroke-width="5" stroke="rgba(21, 125, 119, 1)"></path>
            <path d="M157.5 315 a7.5 7.5 0 1 0 15 0 a7.5 7.5 0 1 0 -15 0zM187.5 375 a7.5 7.5 0 1 0 15 0 a7.5 7.5 0 1 0 -15 0z" fill="rgba(21, 125, 119, 1)"></path>
            <path d="M1155 165L1065 165" stroke-width="5" stroke="rgba(21, 125, 119, 1)"></path>
            <path d="M1147.5 165 a7.5 7.5 0 1 0 15 0 a7.5 7.5 0 1 0 -15 0zM1057.5 165 a7.5 7.5 0 1 0 15 0 a7.5 7.5 0 1 0 -15 0z" fill="rgba(21, 125, 119, 1)"></path>
            <path d="M45 915L45 885L75 855L75 825L45 795" stroke-width="5" stroke="rgba(21, 125, 119, 1)"></path>
            <path d="M37.5 915 a7.5 7.5 0 1 0 15 0 a7.5 7.5 0 1 0 -15 0zM37.5 795 a7.5 7.5 0 1 0 15 0 a7.5 7.5 0 1 0 -15 0z" fill="rgba(21, 125, 119, 1)"></path>
            <path d="M1425 285L1395 315L1365 315" stroke-width="5" stroke="rgba(21, 125, 119, 1)"></path>
            <path d="M1417.5 285 a7.5 7.5 0 1 0 15 0 a7.5 7.5 0 1 0 -15 0zM1357.5 315 a7.5 7.5 0 1 0 15 0 a7.5 7.5 0 1 0 -15 0z" fill="rgba(21, 125, 119, 1)"></path>
            <path d="M1785 885L1815 885L1875 945" stroke-width="5" stroke="rgba(21, 125, 119, 1)"></path>
            <path d="M1777.5 885 a7.5 7.5 0 1 0 15 0 a7.5 7.5 0 1 0 -15 0zM1867.5 945 a7.5 7.5 0 1 0 15 0 a7.5 7.5 0 1 0 -15 0z" fill="rgba(21, 125, 119, 1)"></path>
            <path d="M15 15L75 15" stroke-width="5" stroke="rgba(21, 125, 119, 1)"></path>
            <path d="M7.5 15 a7.5 7.5 0 1 0 15 0 a7.5 7.5 0 1 0 -15 0zM67.5 15 a7.5 7.5 0 1 0 15 0 a7.5 7.5 0 1 0 -15 0z" fill="rgba(21, 125, 119, 1)"></path>
            <path d="M1005 345L1065 285" stroke-width="5" stroke="rgba(21, 125, 119, 1)"></path>
            <path d="M997.5 345 a7.5 7.5 0 1 0 15 0 a7.5 7.5 0 1 0 -15 0zM1057.5 285 a7.5 7.5 0 1 0 15 0 a7.5 7.5 0 1 0 -15 0z" fill="rgba(21, 125, 119, 1)"></path>
            <path d="M105 585L195 585" stroke-width="5" stroke="rgba(21, 125, 119, 1)"></path>
            <path d="M97.5 585 a7.5 7.5 0 1 0 15 0 a7.5 7.5 0 1 0 -15 0zM187.5 585 a7.5 7.5 0 1 0 15 0 a7.5 7.5 0 1 0 -15 0z" fill="rgba(21, 125, 119, 1)"></path>
            <path d="M405 945L285 945" stroke-width="5" stroke="rgba(21, 125, 119, 1)"></path>
            <path d="M397.5 945 a7.5 7.5 0 1 0 15 0 a7.5 7.5 0 1 0 -15 0zM277.5 945 a7.5 7.5 0 1 0 15 0 a7.5 7.5 0 1 0 -15 0z" fill="rgba(21, 125, 119, 1)"></path>
            <path d="M1785 675L1785 795" stroke-width="5" stroke="rgba(21, 125, 119, 1)"></path>
            <path d="M1777.5 675 a7.5 7.5 0 1 0 15 0 a7.5 7.5 0 1 0 -15 0zM1777.5 795 a7.5 7.5 0 1 0 15 0 a7.5 7.5 0 1 0 -15 0z" fill="rgba(21, 125, 119, 1)"></path>
            <path d="M1755 15L1785 45L1905 45" stroke-width="5" stroke="rgba(21, 125, 119, 1)"></path>
            <path d="M1747.5 15 a7.5 7.5 0 1 0 15 0 a7.5 7.5 0 1 0 -15 0zM1897.5 45 a7.5 7.5 0 1 0 15 0 a7.5 7.5 0 1 0 -15 0z" fill="rgba(21, 125, 119, 1)"></path>
            <path d="M1065 825L1035 825L1005 855L1005 885" stroke-width="5" stroke="rgba(21, 125, 119, 1)"></path>
            <path d="M1057.5 825 a7.5 7.5 0 1 0 15 0 a7.5 7.5 0 1 0 -15 0zM997.5 885 a7.5 7.5 0 1 0 15 0 a7.5 7.5 0 1 0 -15 0z" fill="rgba(21, 125, 119, 1)"></path>
            <path d="M1185 915L1245 915L1275 885L1335 885" stroke-width="5" stroke="rgba(21, 125, 119, 1)"></path>
            <path d="M1177.5 915 a7.5 7.5 0 1 0 15 0 a7.5 7.5 0 1 0 -15 0zM1327.5 885 a7.5 7.5 0 1 0 15 0 a7.5 7.5 0 1 0 -15 0z" fill="rgba(21, 125, 119, 1)"></path>
            <path d="M1245 45L1245 75L1305 135" stroke-width="5" stroke="rgba(21, 125, 119, 1)"></path>
            <path d="M1237.5 45 a7.5 7.5 0 1 0 15 0 a7.5 7.5 0 1 0 -15 0zM1297.5 135 a7.5 7.5 0 1 0 15 0 a7.5 7.5 0 1 0 -15 0z" fill="rgba(21, 125, 119, 1)"></path>
            <path d="M465 255L405 195" stroke-width="5" stroke="rgba(21, 125, 119, 1)"></path>
            <path d="M457.5 255 a7.5 7.5 0 1 0 15 0 a7.5 7.5 0 1 0 -15 0zM397.5 195 a7.5 7.5 0 1 0 15 0 a7.5 7.5 0 1 0 -15 0z" fill="rgba(21, 125, 119, 1)"></path>
            <path d="M525 195L555 195L585 165L615 165" stroke-width="5" stroke="rgba(21, 125, 119, 1)"></path>
            <path d="M517.5 195 a7.5 7.5 0 1 0 15 0 a7.5 7.5 0 1 0 -15 0zM607.5 165 a7.5 7.5 0 1 0 15 0 a7.5 7.5 0 1 0 -15 0z" fill="rgba(21, 125, 119, 1)"></path>
            <path d="M405 675L375 645L315 645" stroke-width="5" stroke="rgba(21, 125, 119, 1)"></path>
            <path d="M397.5 675 a7.5 7.5 0 1 0 15 0 a7.5 7.5 0 1 0 -15 0zM307.5 645 a7.5 7.5 0 1 0 15 0 a7.5 7.5 0 1 0 -15 0z" fill="rgba(21, 125, 119, 1)"></path>
            <path d="M1005 255L1035 255L1065 225" stroke-width="5" stroke="rgba(21, 125, 119, 1)"></path>
            <path d="M997.5 255 a7.5 7.5 0 1 0 15 0 a7.5 7.5 0 1 0 -15 0zM1057.5 225 a7.5 7.5 0 1 0 15 0 a7.5 7.5 0 1 0 -15 0z" fill="rgba(21, 125, 119, 1)"></path>
            <path d="M1785 525L1725 585L1695 585" stroke-width="5" stroke="rgba(21, 125, 119, 1)"></path>
            <path d="M1777.5 525 a7.5 7.5 0 1 0 15 0 a7.5 7.5 0 1 0 -15 0zM1687.5 585 a7.5 7.5 0 1 0 15 0 a7.5 7.5 0 1 0 -15 0z" fill="rgba(21, 125, 119, 1)"></path>
            <path d="M1185 795L1245 855L1245 885" stroke-width="5" stroke="rgba(21, 125, 119, 1)"></path>
            <path d="M1177.5 795 a7.5 7.5 0 1 0 15 0 a7.5 7.5 0 1 0 -15 0zM1237.5 885 a7.5 7.5 0 1 0 15 0 a7.5 7.5 0 1 0 -15 0z" fill="rgba(21, 125, 119, 1)"></path>
            <path d="M1485 345L1485 135" stroke-width="5" stroke="rgba(21, 125, 119, 1)"></path>
            <path d="M1477.5 345 a7.5 7.5 0 1 0 15 0 a7.5 7.5 0 1 0 -15 0zM1477.5 135 a7.5 7.5 0 1 0 15 0 a7.5 7.5 0 1 0 -15 0z" fill="rgba(21, 125, 119, 1)"></path>
            <path d="M1605 885L1665 885" stroke-width="5" stroke="rgba(21, 125, 119, 1)"></path>
            <path d="M1597.5 885 a7.5 7.5 0 1 0 15 0 a7.5 7.5 0 1 0 -15 0zM1657.5 885 a7.5 7.5 0 1 0 15 0 a7.5 7.5 0 1 0 -15 0z" fill="rgba(21, 125, 119, 1)"></path>
            <path d="M375 15L405 45L435 45L465 15" stroke-width="5" stroke="rgba(21, 125, 119, 1)"></path>
            <path d="M367.5 15 a7.5 7.5 0 1 0 15 0 a7.5 7.5 0 1 0 -15 0zM457.5 15 a7.5 7.5 0 1 0 15 0 a7.5 7.5 0 1 0 -15 0z" fill="rgba(21, 125, 119, 1)"></path>
            <path d="M105 555L165 555" stroke-width="5" stroke="rgba(21, 125, 119, 1)"></path>
            <path d="M97.5 555 a7.5 7.5 0 1 0 15 0 a7.5 7.5 0 1 0 -15 0zM157.5 555 a7.5 7.5 0 1 0 15 0 a7.5 7.5 0 1 0 -15 0z" fill="rgba(21, 125, 119, 1)"></path>
            <path d="M525 825L435 825" stroke-width="5" stroke="rgba(21, 125, 119, 1)"></path>
            <path d="M517.5 825 a7.5 7.5 0 1 0 15 0 a7.5 7.5 0 1 0 -15 0zM427.5 825 a7.5 7.5 0 1 0 15 0 a7.5 7.5 0 1 0 -15 0z" fill="rgba(21, 125, 119, 1)"></path>
            <path d="M435 555L435 525L405 495" stroke-width="5" stroke="rgba(21, 125, 119, 1)"></path>
            <path d="M427.5 555 a7.5 7.5 0 1 0 15 0 a7.5 7.5 0 1 0 -15 0zM397.5 495 a7.5 7.5 0 1 0 15 0 a7.5 7.5 0 1 0 -15 0z" fill="rgba(21, 125, 119, 1)"></path>
            <path d="M135 735L75 735L45 705L15 705" stroke-width="5" stroke="rgba(21, 125, 119, 1)"></path>
            <path d="M127.5 735 a7.5 7.5 0 1 0 15 0 a7.5 7.5 0 1 0 -15 0zM7.5 705 a7.5 7.5 0 1 0 15 0 a7.5 7.5 0 1 0 -15 0z" fill="rgba(21, 125, 119, 1)"></path>
            <path d="M765 15L795 45L855 45" stroke-width="5" stroke="rgba(21, 125, 119, 1)"></path>
            <path d="M757.5 15 a7.5 7.5 0 1 0 15 0 a7.5 7.5 0 1 0 -15 0zM847.5 45 a7.5 7.5 0 1 0 15 0 a7.5 7.5 0 1 0 -15 0z" fill="rgba(21, 125, 119, 1)"></path>
            <path d="M1665 465L1755 375L1815 375" stroke-width="5" stroke="rgba(21, 125, 119, 1)"></path>
            <path d="M1657.5 465 a7.5 7.5 0 1 0 15 0 a7.5 7.5 0 1 0 -15 0zM1807.5 375 a7.5 7.5 0 1 0 15 0 a7.5 7.5 0 1 0 -15 0z" fill="rgba(21, 125, 119, 1)"></path>
            <path d="M1905 765L1905 585" stroke-width="5" stroke="rgba(21, 125, 119, 1)"></path>
            <path d="M1897.5 765 a7.5 7.5 0 1 0 15 0 a7.5 7.5 0 1 0 -15 0zM1897.5 585 a7.5 7.5 0 1 0 15 0 a7.5 7.5 0 1 0 -15 0z" fill="rgba(21, 125, 119, 1)"></path>
            <path d="M1185 885L1185 825L1125 765" stroke-width="5" stroke="rgba(21, 125, 119, 1)"></path>
            <path d="M1177.5 885 a7.5 7.5 0 1 0 15 0 a7.5 7.5 0 1 0 -15 0zM1117.5 765 a7.5 7.5 0 1 0 15 0 a7.5 7.5 0 1 0 -15 0z" fill="rgba(21, 125, 119, 1)"></path>
            <path d="M1695 255L1695 165L1665 135" stroke-width="5" stroke="rgba(21, 125, 119, 1)"></path>
            <path d="M1687.5 255 a7.5 7.5 0 1 0 15 0 a7.5 7.5 0 1 0 -15 0zM1657.5 135 a7.5 7.5 0 1 0 15 0 a7.5 7.5 0 1 0 -15 0z" fill="rgba(21, 125, 119, 1)"></path>
            <path d="M1755 165L1785 135L1905 135" stroke-width="5" stroke="rgba(21, 125, 119, 1)"></path>
            <path d="M1747.5 165 a7.5 7.5 0 1 0 15 0 a7.5 7.5 0 1 0 -15 0zM1897.5 135 a7.5 7.5 0 1 0 15 0 a7.5 7.5 0 1 0 -15 0z" fill="rgba(21, 125, 119, 1)"></path>
            <path d="M1605 765L1665 765" stroke-width="5" stroke="rgba(21, 125, 119, 1)"></path>
            <path d="M1597.5 765 a7.5 7.5 0 1 0 15 0 a7.5 7.5 0 1 0 -15 0zM1657.5 765 a7.5 7.5 0 1 0 15 0 a7.5 7.5 0 1 0 -15 0z" fill="rgba(21, 125, 119, 1)"></path>
            <path d="M285 735L255 705L255 675" stroke-width="5" stroke="rgba(21, 125, 119, 1)"></path>
            <path d="M277.5 735 a7.5 7.5 0 1 0 15 0 a7.5 7.5 0 1 0 -15 0zM247.5 675 a7.5 7.5 0 1 0 15 0 a7.5 7.5 0 1 0 -15 0z" fill="rgba(21, 125, 119, 1)"></path>
            <path d="M1905 855L1845 855" stroke-width="5" stroke="rgba(21, 125, 119, 1)"></path>
            <path d="M1897.5 855 a7.5 7.5 0 1 0 15 0 a7.5 7.5 0 1 0 -15 0zM1837.5 855 a7.5 7.5 0 1 0 15 0 a7.5 7.5 0 1 0 -15 0z" fill="rgba(21, 125, 119, 1)"></path>
            <path d="M1695 465L1725 465L1785 405" stroke-width="5" stroke="rgba(21, 125, 119, 1)"></path>
            <path d="M1687.5 465 a7.5 7.5 0 1 0 15 0 a7.5 7.5 0 1 0 -15 0zM1777.5 405 a7.5 7.5 0 1 0 15 0 a7.5 7.5 0 1 0 -15 0z" fill="rgba(21, 125, 119, 1)"></path>
            <path d="M1095 75L1125 45L1125 15" stroke-width="5" stroke="rgba(21, 125, 119, 1)"></path>
            <path d="M1087.5 75 a7.5 7.5 0 1 0 15 0 a7.5 7.5 0 1 0 -15 0zM1117.5 15 a7.5 7.5 0 1 0 15 0 a7.5 7.5 0 1 0 -15 0z" fill="rgba(21, 125, 119, 1)"></path>
            <path d="M735 135L795 135" stroke-width="5" stroke="rgba(21, 125, 119, 1)"></path>
            <path d="M727.5 135 a7.5 7.5 0 1 0 15 0 a7.5 7.5 0 1 0 -15 0zM787.5 135 a7.5 7.5 0 1 0 15 0 a7.5 7.5 0 1 0 -15 0z" fill="rgba(21, 125, 119, 1)"></path>
            <path d="M675 915L645 945L645 1005" stroke-width="5" stroke="rgba(21, 125, 119, 1)"></path>
            <path d="M667.5 915 a7.5 7.5 0 1 0 15 0 a7.5 7.5 0 1 0 -15 0zM637.5 1005 a7.5 7.5 0 1 0 15 0 a7.5 7.5 0 1 0 -15 0z" fill="rgba(21, 125, 119, 1)"></path>
            <path d="M1155 225L1125 255L1095 255" stroke-width="5" stroke="rgba(21, 125, 119, 1)"></path>
            <path d="M1147.5 225 a7.5 7.5 0 1 0 15 0 a7.5 7.5 0 1 0 -15 0zM1087.5 255 a7.5 7.5 0 1 0 15 0 a7.5 7.5 0 1 0 -15 0z" fill="rgba(21, 125, 119, 1)"></path>
            <path d="M285 255L225 195" stroke-width="5" stroke="rgba(21, 125, 119, 1)"></path>
            <path d="M277.5 255 a7.5 7.5 0 1 0 15 0 a7.5 7.5 0 1 0 -15 0zM217.5 195 a7.5 7.5 0 1 0 15 0 a7.5 7.5 0 1 0 -15 0z" fill="rgba(21, 125, 119, 1)"></path>
            <path d="M195 855L165 825L135 825" stroke-width="5" stroke="rgba(21, 125, 119, 1)"></path>
            <path d="M187.5 855 a7.5 7.5 0 1 0 15 0 a7.5 7.5 0 1 0 -15 0zM127.5 825 a7.5 7.5 0 1 0 15 0 a7.5 7.5 0 1 0 -15 0z" fill="rgba(21, 125, 119, 1)"></path>
            <path d="M1515 165L1545 165L1575 195L1575 255" stroke-width="5" stroke="rgba(21, 125, 119, 1)"></path>
            <path d="M1507.5 165 a7.5 7.5 0 1 0 15 0 a7.5 7.5 0 1 0 -15 0zM1567.5 255 a7.5 7.5 0 1 0 15 0 a7.5 7.5 0 1 0 -15 0z" fill="rgba(21, 125, 119, 1)"></path>
            <path d="M1035 975L1005 945L975 945" stroke-width="5" stroke="rgba(21, 125, 119, 1)"></path>
            <path d="M1027.5 975 a7.5 7.5 0 1 0 15 0 a7.5 7.5 0 1 0 -15 0zM967.5 945 a7.5 7.5 0 1 0 15 0 a7.5 7.5 0 1 0 -15 0z" fill="rgba(21, 125, 119, 1)"></path>
            <path d="M915 945L975 1005" stroke-width="5" stroke="rgba(21, 125, 119, 1)"></path>
            <path d="M907.5 945 a7.5 7.5 0 1 0 15 0 a7.5 7.5 0 1 0 -15 0zM967.5 1005 a7.5 7.5 0 1 0 15 0 a7.5 7.5 0 1 0 -15 0z" fill="rgba(21, 125, 119, 1)"></path>
            <path d="M1905 165L1875 195L1785 195" stroke-width="5" stroke="rgba(21, 125, 119, 1)"></path>
            <path d="M1897.5 165 a7.5 7.5 0 1 0 15 0 a7.5 7.5 0 1 0 -15 0zM1777.5 195 a7.5 7.5 0 1 0 15 0 a7.5 7.5 0 1 0 -15 0z" fill="rgba(21, 125, 119, 1)"></path>
            <path d="M1605 105L1545 105" stroke-width="5" stroke="rgba(21, 125, 119, 1)"></path>
            <path d="M1597.5 105 a7.5 7.5 0 1 0 15 0 a7.5 7.5 0 1 0 -15 0zM1537.5 105 a7.5 7.5 0 1 0 15 0 a7.5 7.5 0 1 0 -15 0z" fill="rgba(21, 125, 119, 1)"></path>
            <path d="M345 15L345 75" stroke-width="5" stroke="rgba(21, 125, 119, 1)"></path>
            <path d="M337.5 15 a7.5 7.5 0 1 0 15 0 a7.5 7.5 0 1 0 -15 0zM337.5 75 a7.5 7.5 0 1 0 15 0 a7.5 7.5 0 1 0 -15 0z" fill="rgba(21, 125, 119, 1)"></path>
            <path d="M765 795L705 735" stroke-width="5" stroke="rgba(21, 125, 119, 1)"></path>
            <path d="M757.5 795 a7.5 7.5 0 1 0 15 0 a7.5 7.5 0 1 0 -15 0zM697.5 735 a7.5 7.5 0 1 0 15 0 a7.5 7.5 0 1 0 -15 0z" fill="rgba(21, 125, 119, 1)"></path>
            <path d="M1905 15L1815 15" stroke-width="5" stroke="rgba(21, 125, 119, 1)"></path>
            <path d="M1897.5 15 a7.5 7.5 0 1 0 15 0 a7.5 7.5 0 1 0 -15 0zM1807.5 15 a7.5 7.5 0 1 0 15 0 a7.5 7.5 0 1 0 -15 0z" fill="rgba(21, 125, 119, 1)"></path>
            <path d="M1335 435L1365 435L1395 465" stroke-width="5" stroke="rgba(21, 125, 119, 1)"></path>
            <path d="M1327.5 435 a7.5 7.5 0 1 0 15 0 a7.5 7.5 0 1 0 -15 0zM1387.5 465 a7.5 7.5 0 1 0 15 0 a7.5 7.5 0 1 0 -15 0z" fill="rgba(21, 125, 119, 1)"></path>
            <path d="M1545 705L1545 645" stroke-width="5" stroke="rgba(21, 125, 119, 1)"></path>
            <path d="M1537.5 705 a7.5 7.5 0 1 0 15 0 a7.5 7.5 0 1 0 -15 0zM1537.5 645 a7.5 7.5 0 1 0 15 0 a7.5 7.5 0 1 0 -15 0z" fill="rgba(21, 125, 119, 1)"></path>
            <path d="M1035 645L975 705L945 705" stroke-width="5" stroke="rgba(21, 125, 119, 1)"></path>
            <path d="M1027.5 645 a7.5 7.5 0 1 0 15 0 a7.5 7.5 0 1 0 -15 0zM937.5 705 a7.5 7.5 0 1 0 15 0 a7.5 7.5 0 1 0 -15 0z" fill="rgba(21, 125, 119, 1)"></path>
            <path d="M135 315L135 285L165 255" stroke-width="5" stroke="rgba(21, 125, 119, 1)"></path>
            <path d="M127.5 315 a7.5 7.5 0 1 0 15 0 a7.5 7.5 0 1 0 -15 0zM157.5 255 a7.5 7.5 0 1 0 15 0 a7.5 7.5 0 1 0 -15 0z" fill="rgba(21, 125, 119, 1)"></path>
            <path d="M735 945L675 945" stroke-width="5" stroke="rgba(21, 125, 119, 1)"></path>
            <path d="M727.5 945 a7.5 7.5 0 1 0 15 0 a7.5 7.5 0 1 0 -15 0zM667.5 945 a7.5 7.5 0 1 0 15 0 a7.5 7.5 0 1 0 -15 0z" fill="rgba(21, 125, 119, 1)"></path>
            <path d="M1785 615L1815 615L1845 585L1845 525" stroke-width="5" stroke="rgba(21, 125, 119, 1)"></path>
            <path d="M1777.5 615 a7.5 7.5 0 1 0 15 0 a7.5 7.5 0 1 0 -15 0zM1837.5 525 a7.5 7.5 0 1 0 15 0 a7.5 7.5 0 1 0 -15 0z" fill="rgba(21, 125, 119, 1)"></path>
            <path d="M1155 315L1125 345L1125 375" stroke-width="5" stroke="rgba(21, 125, 119, 1)"></path>
            <path d="M1147.5 315 a7.5 7.5 0 1 0 15 0 a7.5 7.5 0 1 0 -15 0zM1117.5 375 a7.5 7.5 0 1 0 15 0 a7.5 7.5 0 1 0 -15 0z" fill="rgba(21, 125, 119, 1)"></path>
            <path d="M1215 765L1155 765" stroke-width="5" stroke="rgba(21, 125, 119, 1)"></path>
            <path d="M1207.5 765 a7.5 7.5 0 1 0 15 0 a7.5 7.5 0 1 0 -15 0zM1147.5 765 a7.5 7.5 0 1 0 15 0 a7.5 7.5 0 1 0 -15 0z" fill="rgba(21, 125, 119, 1)"></path>
            <path d="M705 315L705 285L675 255" stroke-width="5" stroke="rgba(21, 125, 119, 1)"></path>
            <path d="M697.5 315 a7.5 7.5 0 1 0 15 0 a7.5 7.5 0 1 0 -15 0zM667.5 255 a7.5 7.5 0 1 0 15 0 a7.5 7.5 0 1 0 -15 0z" fill="rgba(21, 125, 119, 1)"></path>
            <path d="M1665 555L1665 495" stroke-width="5" stroke="rgba(21, 125, 119, 1)"></path>
            <path d="M1657.5 555 a7.5 7.5 0 1 0 15 0 a7.5 7.5 0 1 0 -15 0zM1657.5 495 a7.5 7.5 0 1 0 15 0 a7.5 7.5 0 1 0 -15 0z" fill="rgba(21, 125, 119, 1)"></path>
            <path d="M1545 195L1545 255" stroke-width="5" stroke="rgba(21, 125, 119, 1)"></path>
            <path d="M1537.5 195 a7.5 7.5 0 1 0 15 0 a7.5 7.5 0 1 0 -15 0zM1537.5 255 a7.5 7.5 0 1 0 15 0 a7.5 7.5 0 1 0 -15 0z" fill="rgba(21, 125, 119, 1)"></path>
            <path d="M1125 315L1155 285L1155 255" stroke-width="5" stroke="rgba(21, 125, 119, 1)"></path>
            <path d="M1117.5 315 a7.5 7.5 0 1 0 15 0 a7.5 7.5 0 1 0 -15 0zM1147.5 255 a7.5 7.5 0 1 0 15 0 a7.5 7.5 0 1 0 -15 0z" fill="rgba(21, 125, 119, 1)"></path>
        </g>
    </g>
    <defs>
        <mask id="SvgjsMask1045">
            <rect width="1920" height="1000" fill="#ffffff"></rect>
        </mask>
        <mask id="SvgjsMask1046">
            <rect width="1920" height="1000" fill="white"></rect>
            <path d="M701.25 525 a3.75 3.75 0 1 0 7.5 0 a3.75 3.75 0 1 0 -7.5 0zM791.25 15 a3.75 3.75 0 1 0 7.5 0 a3.75 3.75 0 1 0 -7.5 0z" fill="black"></path>
            <path d="M191.25 525 a3.75 3.75 0 1 0 7.5 0 a3.75 3.75 0 1 0 -7.5 0zM611.25 1005 a3.75 3.75 0 1 0 7.5 0 a3.75 3.75 0 1 0 -7.5 0z" fill="black"></path>
            <path d="M311.25 675 a3.75 3.75 0 1 0 7.5 0 a3.75 3.75 0 1 0 -7.5 0zM221.25 105 a3.75 3.75 0 1 0 7.5 0 a3.75 3.75 0 1 0 -7.5 0z" fill="black"></path>
            <path d="M1091.25 435 a3.75 3.75 0 1 0 7.5 0 a3.75 3.75 0 1 0 -7.5 0zM1481.25 15 a3.75 3.75 0 1 0 7.5 0 a3.75 3.75 0 1 0 -7.5 0z" fill="black"></path>
            <path d="M1901.25 375 a3.75 3.75 0 1 0 7.5 0 a3.75 3.75 0 1 0 -7.5 0zM1601.25 735 a3.75 3.75 0 1 0 7.5 0 a3.75 3.75 0 1 0 -7.5 0z" fill="black"></path>
            <path d="M1541.25 885 a3.75 3.75 0 1 0 7.5 0 a3.75 3.75 0 1 0 -7.5 0zM1181.25 405 a3.75 3.75 0 1 0 7.5 0 a3.75 3.75 0 1 0 -7.5 0z" fill="black"></path>
            <path d="M1841.25 255 a3.75 3.75 0 1 0 7.5 0 a3.75 3.75 0 1 0 -7.5 0zM1901.25 345 a3.75 3.75 0 1 0 7.5 0 a3.75 3.75 0 1 0 -7.5 0z" fill="black"></path>
            <path d="M491.25 975 a3.75 3.75 0 1 0 7.5 0 a3.75 3.75 0 1 0 -7.5 0zM581.25 975 a3.75 3.75 0 1 0 7.5 0 a3.75 3.75 0 1 0 -7.5 0z" fill="black"></path>
            <path d="M851.25 765 a3.75 3.75 0 1 0 7.5 0 a3.75 3.75 0 1 0 -7.5 0zM281.25 495 a3.75 3.75 0 1 0 7.5 0 a3.75 3.75 0 1 0 -7.5 0z" fill="black"></path>
            <path d="M1331.25 585 a3.75 3.75 0 1 0 7.5 0 a3.75 3.75 0 1 0 -7.5 0zM1631.25 135 a3.75 3.75 0 1 0 7.5 0 a3.75 3.75 0 1 0 -7.5 0z" fill="black"></path>
            <path d="M1751.25 765 a3.75 3.75 0 1 0 7.5 0 a3.75 3.75 0 1 0 -7.5 0zM1901.25 405 a3.75 3.75 0 1 0 7.5 0 a3.75 3.75 0 1 0 -7.5 0z" fill="black"></path>
            <path d="M1271.25 375 a3.75 3.75 0 1 0 7.5 0 a3.75 3.75 0 1 0 -7.5 0zM1571.25 855 a3.75 3.75 0 1 0 7.5 0 a3.75 3.75 0 1 0 -7.5 0z" fill="black"></path>
            <path d="M1361.25 405 a3.75 3.75 0 1 0 7.5 0 a3.75 3.75 0 1 0 -7.5 0zM1421.25 465 a3.75 3.75 0 1 0 7.5 0 a3.75 3.75 0 1 0 -7.5 0z" fill="black"></path>
            <path d="M461.25 735 a3.75 3.75 0 1 0 7.5 0 a3.75 3.75 0 1 0 -7.5 0zM11.25 1005 a3.75 3.75 0 1 0 7.5 0 a3.75 3.75 0 1 0 -7.5 0z" fill="black"></path>
            <path d="M1031.25 915 a3.75 3.75 0 1 0 7.5 0 a3.75 3.75 0 1 0 -7.5 0zM1271.25 735 a3.75 3.75 0 1 0 7.5 0 a3.75 3.75 0 1 0 -7.5 0z" fill="black"></path>
            <path d="M671.25 525 a3.75 3.75 0 1 0 7.5 0 a3.75 3.75 0 1 0 -7.5 0zM701.25 45 a3.75 3.75 0 1 0 7.5 0 a3.75 3.75 0 1 0 -7.5 0z" fill="black"></path>
            <path d="M341.25 825 a3.75 3.75 0 1 0 7.5 0 a3.75 3.75 0 1 0 -7.5 0zM11.25 975 a3.75 3.75 0 1 0 7.5 0 a3.75 3.75 0 1 0 -7.5 0z" fill="black"></path>
            <path d="M401.25 705 a3.75 3.75 0 1 0 7.5 0 a3.75 3.75 0 1 0 -7.5 0zM11.25 945 a3.75 3.75 0 1 0 7.5 0 a3.75 3.75 0 1 0 -7.5 0z" fill="black"></path>
            <path d="M401.25 285 a3.75 3.75 0 1 0 7.5 0 a3.75 3.75 0 1 0 -7.5 0zM971.25 855 a3.75 3.75 0 1 0 7.5 0 a3.75 3.75 0 1 0 -7.5 0z" fill="black"></path>
            <path d="M1091.25 45 a3.75 3.75 0 1 0 7.5 0 a3.75 3.75 0 1 0 -7.5 0zM941.25 495 a3.75 3.75 0 1 0 7.5 0 a3.75 3.75 0 1 0 -7.5 0z" fill="black"></path>
            <path d="M1571.25 585 a3.75 3.75 0 1 0 7.5 0 a3.75 3.75 0 1 0 -7.5 0zM1511.25 495 a3.75 3.75 0 1 0 7.5 0 a3.75 3.75 0 1 0 -7.5 0z" fill="black"></path>
            <path d="M821.25 765 a3.75 3.75 0 1 0 7.5 0 a3.75 3.75 0 1 0 -7.5 0zM1091.25 1005 a3.75 3.75 0 1 0 7.5 0 a3.75 3.75 0 1 0 -7.5 0z" fill="black"></path>
            <path d="M71.25 45 a3.75 3.75 0 1 0 7.5 0 a3.75 3.75 0 1 0 -7.5 0zM611.25 15 a3.75 3.75 0 1 0 7.5 0 a3.75 3.75 0 1 0 -7.5 0z" fill="black"></path>
            <path d="M1451.25 615 a3.75 3.75 0 1 0 7.5 0 a3.75 3.75 0 1 0 -7.5 0zM1901.25 1005 a3.75 3.75 0 1 0 7.5 0 a3.75 3.75 0 1 0 -7.5 0z" fill="black"></path>
            <path d="M251.25 135 a3.75 3.75 0 1 0 7.5 0 a3.75 3.75 0 1 0 -7.5 0zM641.25 675 a3.75 3.75 0 1 0 7.5 0 a3.75 3.75 0 1 0 -7.5 0z" fill="black"></path>
            <path d="M1421.25 945 a3.75 3.75 0 1 0 7.5 0 a3.75 3.75 0 1 0 -7.5 0zM1781.25 1005 a3.75 3.75 0 1 0 7.5 0 a3.75 3.75 0 1 0 -7.5 0z" fill="black"></path>
            <path d="M1721.25 975 a3.75 3.75 0 1 0 7.5 0 a3.75 3.75 0 1 0 -7.5 0zM1361.25 1005 a3.75 3.75 0 1 0 7.5 0 a3.75 3.75 0 1 0 -7.5 0z" fill="black"></path>
            <path d="M221.25 615 a3.75 3.75 0 1 0 7.5 0 a3.75 3.75 0 1 0 -7.5 0zM341.25 735 a3.75 3.75 0 1 0 7.5 0 a3.75 3.75 0 1 0 -7.5 0z" fill="black"></path>
            <path d="M1031.25 615 a3.75 3.75 0 1 0 7.5 0 a3.75 3.75 0 1 0 -7.5 0zM701.25 555 a3.75 3.75 0 1 0 7.5 0 a3.75 3.75 0 1 0 -7.5 0z" fill="black"></path>
            <path d="M131.25 645 a3.75 3.75 0 1 0 7.5 0 a3.75 3.75 0 1 0 -7.5 0zM281.25 795 a3.75 3.75 0 1 0 7.5 0 a3.75 3.75 0 1 0 -7.5 0z" fill="black"></path>
            <path d="M1151.25 345 a3.75 3.75 0 1 0 7.5 0 a3.75 3.75 0 1 0 -7.5 0zM1451.25 15 a3.75 3.75 0 1 0 7.5 0 a3.75 3.75 0 1 0 -7.5 0z" fill="black"></path>
            <path d="M281.25 405 a3.75 3.75 0 1 0 7.5 0 a3.75 3.75 0 1 0 -7.5 0zM341.25 405 a3.75 3.75 0 1 0 7.5 0 a3.75 3.75 0 1 0 -7.5 0z" fill="black"></path>
            <path d="M131.25 795 a3.75 3.75 0 1 0 7.5 0 a3.75 3.75 0 1 0 -7.5 0zM191.25 735 a3.75 3.75 0 1 0 7.5 0 a3.75 3.75 0 1 0 -7.5 0z" fill="black"></path>
            <path d="M71.25 375 a3.75 3.75 0 1 0 7.5 0 a3.75 3.75 0 1 0 -7.5 0zM551.25 675 a3.75 3.75 0 1 0 7.5 0 a3.75 3.75 0 1 0 -7.5 0z" fill="black"></path>
            <path d="M161.25 435 a3.75 3.75 0 1 0 7.5 0 a3.75 3.75 0 1 0 -7.5 0zM41.25 345 a3.75 3.75 0 1 0 7.5 0 a3.75 3.75 0 1 0 -7.5 0z" fill="black"></path>
            <path d="M1241.25 735 a3.75 3.75 0 1 0 7.5 0 a3.75 3.75 0 1 0 -7.5 0zM1061.25 855 a3.75 3.75 0 1 0 7.5 0 a3.75 3.75 0 1 0 -7.5 0z" fill="black"></path>
            <path d="M1841.25 825 a3.75 3.75 0 1 0 7.5 0 a3.75 3.75 0 1 0 -7.5 0zM1901.25 825 a3.75 3.75 0 1 0 7.5 0 a3.75 3.75 0 1 0 -7.5 0z" fill="black"></path>
            <path d="M461.25 315 a3.75 3.75 0 1 0 7.5 0 a3.75 3.75 0 1 0 -7.5 0zM11.25 255 a3.75 3.75 0 1 0 7.5 0 a3.75 3.75 0 1 0 -7.5 0z" fill="black"></path>
            <path d="M911.25 375 a3.75 3.75 0 1 0 7.5 0 a3.75 3.75 0 1 0 -7.5 0zM911.25 615 a3.75 3.75 0 1 0 7.5 0 a3.75 3.75 0 1 0 -7.5 0z" fill="black"></path>
            <path d="M1091.25 225 a3.75 3.75 0 1 0 7.5 0 a3.75 3.75 0 1 0 -7.5 0zM971.25 285 a3.75 3.75 0 1 0 7.5 0 a3.75 3.75 0 1 0 -7.5 0z" fill="black"></path>
            <path d="M371.25 75 a3.75 3.75 0 1 0 7.5 0 a3.75 3.75 0 1 0 -7.5 0zM581.25 15 a3.75 3.75 0 1 0 7.5 0 a3.75 3.75 0 1 0 -7.5 0z" fill="black"></path>
            <path d="M1661.25 795 a3.75 3.75 0 1 0 7.5 0 a3.75 3.75 0 1 0 -7.5 0zM1901.25 975 a3.75 3.75 0 1 0 7.5 0 a3.75 3.75 0 1 0 -7.5 0z" fill="black"></path>
            <path d="M41.25 855 a3.75 3.75 0 1 0 7.5 0 a3.75 3.75 0 1 0 -7.5 0zM11.25 915 a3.75 3.75 0 1 0 7.5 0 a3.75 3.75 0 1 0 -7.5 0z" fill="black"></path>
            <path d="M491.25 15 a3.75 3.75 0 1 0 7.5 0 a3.75 3.75 0 1 0 -7.5 0zM401.25 105 a3.75 3.75 0 1 0 7.5 0 a3.75 3.75 0 1 0 -7.5 0z" fill="black"></path>
            <path d="M1241.25 195 a3.75 3.75 0 1 0 7.5 0 a3.75 3.75 0 1 0 -7.5 0zM1421.25 15 a3.75 3.75 0 1 0 7.5 0 a3.75 3.75 0 1 0 -7.5 0z" fill="black"></path>
            <path d="M1601.25 75 a3.75 3.75 0 1 0 7.5 0 a3.75 3.75 0 1 0 -7.5 0zM1181.25 375 a3.75 3.75 0 1 0 7.5 0 a3.75 3.75 0 1 0 -7.5 0z" fill="black"></path>
            <path d="M641.25 165 a3.75 3.75 0 1 0 7.5 0 a3.75 3.75 0 1 0 -7.5 0zM701.25 495 a3.75 3.75 0 1 0 7.5 0 a3.75 3.75 0 1 0 -7.5 0z" fill="black"></path>
            <path d="M761.25 855 a3.75 3.75 0 1 0 7.5 0 a3.75 3.75 0 1 0 -7.5 0zM761.25 1005 a3.75 3.75 0 1 0 7.5 0 a3.75 3.75 0 1 0 -7.5 0z" fill="black"></path>
            <path d="M761.25 825 a3.75 3.75 0 1 0 7.5 0 a3.75 3.75 0 1 0 -7.5 0zM521.25 735 a3.75 3.75 0 1 0 7.5 0 a3.75 3.75 0 1 0 -7.5 0z" fill="black"></path>
            <path d="M641.25 405 a3.75 3.75 0 1 0 7.5 0 a3.75 3.75 0 1 0 -7.5 0zM881.25 75 a3.75 3.75 0 1 0 7.5 0 a3.75 3.75 0 1 0 -7.5 0z" fill="black"></path>
            <path d="M1691.25 735 a3.75 3.75 0 1 0 7.5 0 a3.75 3.75 0 1 0 -7.5 0zM1631.25 675 a3.75 3.75 0 1 0 7.5 0 a3.75 3.75 0 1 0 -7.5 0z" fill="black"></path>
            <path d="M1451.25 675 a3.75 3.75 0 1 0 7.5 0 a3.75 3.75 0 1 0 -7.5 0zM1361.25 585 a3.75 3.75 0 1 0 7.5 0 a3.75 3.75 0 1 0 -7.5 0z" fill="black"></path>
            <path d="M971.25 225 a3.75 3.75 0 1 0 7.5 0 a3.75 3.75 0 1 0 -7.5 0zM1031.25 75 a3.75 3.75 0 1 0 7.5 0 a3.75 3.75 0 1 0 -7.5 0z" fill="black"></path>
            <path d="M1151.25 105 a3.75 3.75 0 1 0 7.5 0 a3.75 3.75 0 1 0 -7.5 0zM1151.25 15 a3.75 3.75 0 1 0 7.5 0 a3.75 3.75 0 1 0 -7.5 0z" fill="black"></path>
            <path d="M1541.25 15 a3.75 3.75 0 1 0 7.5 0 a3.75 3.75 0 1 0 -7.5 0zM1661.25 375 a3.75 3.75 0 1 0 7.5 0 a3.75 3.75 0 1 0 -7.5 0z" fill="black"></path>
            <path d="M1601.25 285 a3.75 3.75 0 1 0 7.5 0 a3.75 3.75 0 1 0 -7.5 0zM1421.25 165 a3.75 3.75 0 1 0 7.5 0 a3.75 3.75 0 1 0 -7.5 0z" fill="black"></path>
            <path d="M881.25 1005 a3.75 3.75 0 1 0 7.5 0 a3.75 3.75 0 1 0 -7.5 0zM791.25 735 a3.75 3.75 0 1 0 7.5 0 a3.75 3.75 0 1 0 -7.5 0z" fill="black"></path>
            <path d="M1091.25 855 a3.75 3.75 0 1 0 7.5 0 a3.75 3.75 0 1 0 -7.5 0zM1211.25 645 a3.75 3.75 0 1 0 7.5 0 a3.75 3.75 0 1 0 -7.5 0z" fill="black"></path>
            <path d="M1061.25 375 a3.75 3.75 0 1 0 7.5 0 a3.75 3.75 0 1 0 -7.5 0zM971.25 375 a3.75 3.75 0 1 0 7.5 0 a3.75 3.75 0 1 0 -7.5 0z" fill="black"></path>
            <path d="M701.25 225 a3.75 3.75 0 1 0 7.5 0 a3.75 3.75 0 1 0 -7.5 0zM581.25 285 a3.75 3.75 0 1 0 7.5 0 a3.75 3.75 0 1 0 -7.5 0z" fill="black"></path>
            <path d="M1691.25 525 a3.75 3.75 0 1 0 7.5 0 a3.75 3.75 0 1 0 -7.5 0zM1841.25 375 a3.75 3.75 0 1 0 7.5 0 a3.75 3.75 0 1 0 -7.5 0z" fill="black"></path>
            <path d="M1511.25 105 a3.75 3.75 0 1 0 7.5 0 a3.75 3.75 0 1 0 -7.5 0zM1451.25 405 a3.75 3.75 0 1 0 7.5 0 a3.75 3.75 0 1 0 -7.5 0z" fill="black"></path>
            <path d="M1481.25 405 a3.75 3.75 0 1 0 7.5 0 a3.75 3.75 0 1 0 -7.5 0zM1571.25 405 a3.75 3.75 0 1 0 7.5 0 a3.75 3.75 0 1 0 -7.5 0z" fill="black"></path>
            <path d="M1871.25 675 a3.75 3.75 0 1 0 7.5 0 a3.75 3.75 0 1 0 -7.5 0zM1871.25 405 a3.75 3.75 0 1 0 7.5 0 a3.75 3.75 0 1 0 -7.5 0z" fill="black"></path>
            <path d="M1151.25 645 a3.75 3.75 0 1 0 7.5 0 a3.75 3.75 0 1 0 -7.5 0zM821.25 675 a3.75 3.75 0 1 0 7.5 0 a3.75 3.75 0 1 0 -7.5 0z" fill="black"></path>
            <path d="M731.25 375 a3.75 3.75 0 1 0 7.5 0 a3.75 3.75 0 1 0 -7.5 0zM701.25 435 a3.75 3.75 0 1 0 7.5 0 a3.75 3.75 0 1 0 -7.5 0z" fill="black"></path>
            <path d="M821.25 165 a3.75 3.75 0 1 0 7.5 0 a3.75 3.75 0 1 0 -7.5 0zM821.25 105 a3.75 3.75 0 1 0 7.5 0 a3.75 3.75 0 1 0 -7.5 0z" fill="black"></path>
            <path d="M1301.25 585 a3.75 3.75 0 1 0 7.5 0 a3.75 3.75 0 1 0 -7.5 0zM1421.25 675 a3.75 3.75 0 1 0 7.5 0 a3.75 3.75 0 1 0 -7.5 0z" fill="black"></path>
            <path d="M1181.25 75 a3.75 3.75 0 1 0 7.5 0 a3.75 3.75 0 1 0 -7.5 0zM1241.25 225 a3.75 3.75 0 1 0 7.5 0 a3.75 3.75 0 1 0 -7.5 0z" fill="black"></path>
            <path d="M881.25 195 a3.75 3.75 0 1 0 7.5 0 a3.75 3.75 0 1 0 -7.5 0zM791.25 285 a3.75 3.75 0 1 0 7.5 0 a3.75 3.75 0 1 0 -7.5 0z" fill="black"></path>
            <path d="M1511.25 135 a3.75 3.75 0 1 0 7.5 0 a3.75 3.75 0 1 0 -7.5 0zM1631.25 75 a3.75 3.75 0 1 0 7.5 0 a3.75 3.75 0 1 0 -7.5 0z" fill="black"></path>
            <path d="M851.25 345 a3.75 3.75 0 1 0 7.5 0 a3.75 3.75 0 1 0 -7.5 0zM881.25 225 a3.75 3.75 0 1 0 7.5 0 a3.75 3.75 0 1 0 -7.5 0z" fill="black"></path>
            <path d="M341.25 165 a3.75 3.75 0 1 0 7.5 0 a3.75 3.75 0 1 0 -7.5 0zM281.25 75 a3.75 3.75 0 1 0 7.5 0 a3.75 3.75 0 1 0 -7.5 0z" fill="black"></path>
            <path d="M71.25 795 a3.75 3.75 0 1 0 7.5 0 a3.75 3.75 0 1 0 -7.5 0zM221.25 855 a3.75 3.75 0 1 0 7.5 0 a3.75 3.75 0 1 0 -7.5 0z" fill="black"></path>
            <path d="M1301.25 465 a3.75 3.75 0 1 0 7.5 0 a3.75 3.75 0 1 0 -7.5 0zM1331.25 375 a3.75 3.75 0 1 0 7.5 0 a3.75 3.75 0 1 0 -7.5 0z" fill="black"></path>
            <path d="M1271.25 915 a3.75 3.75 0 1 0 7.5 0 a3.75 3.75 0 1 0 -7.5 0zM1091.25 885 a3.75 3.75 0 1 0 7.5 0 a3.75 3.75 0 1 0 -7.5 0z" fill="black"></path>
            <path d="M1121.25 675 a3.75 3.75 0 1 0 7.5 0 a3.75 3.75 0 1 0 -7.5 0zM881.25 675 a3.75 3.75 0 1 0 7.5 0 a3.75 3.75 0 1 0 -7.5 0z" fill="black"></path>
            <path d="M1871.25 735 a3.75 3.75 0 1 0 7.5 0 a3.75 3.75 0 1 0 -7.5 0zM1691.25 675 a3.75 3.75 0 1 0 7.5 0 a3.75 3.75 0 1 0 -7.5 0z" fill="black"></path>
            <path d="M1271.25 855 a3.75 3.75 0 1 0 7.5 0 a3.75 3.75 0 1 0 -7.5 0zM1271.25 945 a3.75 3.75 0 1 0 7.5 0 a3.75 3.75 0 1 0 -7.5 0z" fill="black"></path>
            <path d="M1751.25 495 a3.75 3.75 0 1 0 7.5 0 a3.75 3.75 0 1 0 -7.5 0zM1661.25 645 a3.75 3.75 0 1 0 7.5 0 a3.75 3.75 0 1 0 -7.5 0z" fill="black"></path>
            <path d="M551.25 765 a3.75 3.75 0 1 0 7.5 0 a3.75 3.75 0 1 0 -7.5 0zM731.25 915 a3.75 3.75 0 1 0 7.5 0 a3.75 3.75 0 1 0 -7.5 0z" fill="black"></path>
            <path d="M431.25 915 a3.75 3.75 0 1 0 7.5 0 a3.75 3.75 0 1 0 -7.5 0zM551.25 825 a3.75 3.75 0 1 0 7.5 0 a3.75 3.75 0 1 0 -7.5 0z" fill="black"></path>
            <path d="M641.25 765 a3.75 3.75 0 1 0 7.5 0 a3.75 3.75 0 1 0 -7.5 0zM731.25 885 a3.75 3.75 0 1 0 7.5 0 a3.75 3.75 0 1 0 -7.5 0z" fill="black"></path>
            <path d="M881.25 525 a3.75 3.75 0 1 0 7.5 0 a3.75 3.75 0 1 0 -7.5 0zM881.25 375 a3.75 3.75 0 1 0 7.5 0 a3.75 3.75 0 1 0 -7.5 0z" fill="black"></path>
            <path d="M221.25 675 a3.75 3.75 0 1 0 7.5 0 a3.75 3.75 0 1 0 -7.5 0zM311.25 765 a3.75 3.75 0 1 0 7.5 0 a3.75 3.75 0 1 0 -7.5 0z" fill="black"></path>
            <path d="M641.25 615 a3.75 3.75 0 1 0 7.5 0 a3.75 3.75 0 1 0 -7.5 0zM761.25 675 a3.75 3.75 0 1 0 7.5 0 a3.75 3.75 0 1 0 -7.5 0z" fill="black"></path>
            <path d="M791.25 585 a3.75 3.75 0 1 0 7.5 0 a3.75 3.75 0 1 0 -7.5 0zM851.25 405 a3.75 3.75 0 1 0 7.5 0 a3.75 3.75 0 1 0 -7.5 0z" fill="black"></path>
            <path d="M41.25 435 a3.75 3.75 0 1 0 7.5 0 a3.75 3.75 0 1 0 -7.5 0zM11.25 645 a3.75 3.75 0 1 0 7.5 0 a3.75 3.75 0 1 0 -7.5 0z" fill="black"></path>
            <path d="M101.25 165 a3.75 3.75 0 1 0 7.5 0 a3.75 3.75 0 1 0 -7.5 0zM131.25 75 a3.75 3.75 0 1 0 7.5 0 a3.75 3.75 0 1 0 -7.5 0z" fill="black"></path>
            <path d="M1751.25 855 a3.75 3.75 0 1 0 7.5 0 a3.75 3.75 0 1 0 -7.5 0zM1691.25 795 a3.75 3.75 0 1 0 7.5 0 a3.75 3.75 0 1 0 -7.5 0z" fill="black"></path>
            <path d="M761.25 555 a3.75 3.75 0 1 0 7.5 0 a3.75 3.75 0 1 0 -7.5 0zM821.25 435 a3.75 3.75 0 1 0 7.5 0 a3.75 3.75 0 1 0 -7.5 0z" fill="black"></path>
            <path d="M1571.25 615 a3.75 3.75 0 1 0 7.5 0 a3.75 3.75 0 1 0 -7.5 0zM1451.25 495 a3.75 3.75 0 1 0 7.5 0 a3.75 3.75 0 1 0 -7.5 0z" fill="black"></path>
            <path d="M791.25 345 a3.75 3.75 0 1 0 7.5 0 a3.75 3.75 0 1 0 -7.5 0zM701.25 375 a3.75 3.75 0 1 0 7.5 0 a3.75 3.75 0 1 0 -7.5 0z" fill="black"></path>
            <path d="M461.25 435 a3.75 3.75 0 1 0 7.5 0 a3.75 3.75 0 1 0 -7.5 0zM401.25 435 a3.75 3.75 0 1 0 7.5 0 a3.75 3.75 0 1 0 -7.5 0z" fill="black"></path>
            <path d="M851.25 885 a3.75 3.75 0 1 0 7.5 0 a3.75 3.75 0 1 0 -7.5 0zM821.25 795 a3.75 3.75 0 1 0 7.5 0 a3.75 3.75 0 1 0 -7.5 0z" fill="black"></path>
            <path d="M41.25 555 a3.75 3.75 0 1 0 7.5 0 a3.75 3.75 0 1 0 -7.5 0zM221.25 645 a3.75 3.75 0 1 0 7.5 0 a3.75 3.75 0 1 0 -7.5 0z" fill="black"></path>
            <path d="M1721.25 855 a3.75 3.75 0 1 0 7.5 0 a3.75 3.75 0 1 0 -7.5 0zM1871.25 975 a3.75 3.75 0 1 0 7.5 0 a3.75 3.75 0 1 0 -7.5 0z" fill="black"></path>
            <path d="M1271.25 15 a3.75 3.75 0 1 0 7.5 0 a3.75 3.75 0 1 0 -7.5 0zM1391.25 15 a3.75 3.75 0 1 0 7.5 0 a3.75 3.75 0 1 0 -7.5 0z" fill="black"></path>
            <path d="M1271.25 135 a3.75 3.75 0 1 0 7.5 0 a3.75 3.75 0 1 0 -7.5 0zM1181.25 15 a3.75 3.75 0 1 0 7.5 0 a3.75 3.75 0 1 0 -7.5 0z" fill="black"></path>
            <path d="M851.25 915 a3.75 3.75 0 1 0 7.5 0 a3.75 3.75 0 1 0 -7.5 0zM821.25 825 a3.75 3.75 0 1 0 7.5 0 a3.75 3.75 0 1 0 -7.5 0z" fill="black"></path>
            <path d="M791.25 555 a3.75 3.75 0 1 0 7.5 0 a3.75 3.75 0 1 0 -7.5 0zM821.25 465 a3.75 3.75 0 1 0 7.5 0 a3.75 3.75 0 1 0 -7.5 0z" fill="black"></path>
            <path d="M11.25 765 a3.75 3.75 0 1 0 7.5 0 a3.75 3.75 0 1 0 -7.5 0zM41.25 585 a3.75 3.75 0 1 0 7.5 0 a3.75 3.75 0 1 0 -7.5 0z" fill="black"></path>
            <path d="M1781.25 225 a3.75 3.75 0 1 0 7.5 0 a3.75 3.75 0 1 0 -7.5 0zM1751.25 285 a3.75 3.75 0 1 0 7.5 0 a3.75 3.75 0 1 0 -7.5 0z" fill="black"></path>
            <path d="M1241.25 375 a3.75 3.75 0 1 0 7.5 0 a3.75 3.75 0 1 0 -7.5 0zM1271.25 315 a3.75 3.75 0 1 0 7.5 0 a3.75 3.75 0 1 0 -7.5 0z" fill="black"></path>
            <path d="M401.25 225 a3.75 3.75 0 1 0 7.5 0 a3.75 3.75 0 1 0 -7.5 0zM371.25 165 a3.75 3.75 0 1 0 7.5 0 a3.75 3.75 0 1 0 -7.5 0z" fill="black"></path>
            <path d="M71.25 135 a3.75 3.75 0 1 0 7.5 0 a3.75 3.75 0 1 0 -7.5 0zM11.25 315 a3.75 3.75 0 1 0 7.5 0 a3.75 3.75 0 1 0 -7.5 0z" fill="black"></path>
            <path d="M161.25 795 a3.75 3.75 0 1 0 7.5 0 a3.75 3.75 0 1 0 -7.5 0zM251.25 795 a3.75 3.75 0 1 0 7.5 0 a3.75 3.75 0 1 0 -7.5 0z" fill="black"></path>
            <path d="M1211.25 105 a3.75 3.75 0 1 0 7.5 0 a3.75 3.75 0 1 0 -7.5 0zM1271.25 165 a3.75 3.75 0 1 0 7.5 0 a3.75 3.75 0 1 0 -7.5 0z" fill="black"></path>
            <path d="M1181.25 705 a3.75 3.75 0 1 0 7.5 0 a3.75 3.75 0 1 0 -7.5 0zM1271.25 705 a3.75 3.75 0 1 0 7.5 0 a3.75 3.75 0 1 0 -7.5 0z" fill="black"></path>
            <path d="M941.25 585 a3.75 3.75 0 1 0 7.5 0 a3.75 3.75 0 1 0 -7.5 0zM1181.25 645 a3.75 3.75 0 1 0 7.5 0 a3.75 3.75 0 1 0 -7.5 0z" fill="black"></path>
            <path d="M1571.25 825 a3.75 3.75 0 1 0 7.5 0 a3.75 3.75 0 1 0 -7.5 0zM1571.25 795 a3.75 3.75 0 1 0 7.5 0 a3.75 3.75 0 1 0 -7.5 0z" fill="black"></path>
            <path d="M341.25 375 a3.75 3.75 0 1 0 7.5 0 a3.75 3.75 0 1 0 -7.5 0zM341.25 315 a3.75 3.75 0 1 0 7.5 0 a3.75 3.75 0 1 0 -7.5 0z" fill="black"></path>
            <path d="M1691.25 615 a3.75 3.75 0 1 0 7.5 0 a3.75 3.75 0 1 0 -7.5 0zM1841.25 405 a3.75 3.75 0 1 0 7.5 0 a3.75 3.75 0 1 0 -7.5 0z" fill="black"></path>
            <path d="M161.25 75 a3.75 3.75 0 1 0 7.5 0 a3.75 3.75 0 1 0 -7.5 0zM101.25 225 a3.75 3.75 0 1 0 7.5 0 a3.75 3.75 0 1 0 -7.5 0z" fill="black"></path>
            <path d="M281.25 1005 a3.75 3.75 0 1 0 7.5 0 a3.75 3.75 0 1 0 -7.5 0zM581.25 1005 a3.75 3.75 0 1 0 7.5 0 a3.75 3.75 0 1 0 -7.5 0z" fill="black"></path>
            <path d="M1061.25 195 a3.75 3.75 0 1 0 7.5 0 a3.75 3.75 0 1 0 -7.5 0zM1211.25 255 a3.75 3.75 0 1 0 7.5 0 a3.75 3.75 0 1 0 -7.5 0z" fill="black"></path>
            <path d="M1781.25 285 a3.75 3.75 0 1 0 7.5 0 a3.75 3.75 0 1 0 -7.5 0zM1901.25 225 a3.75 3.75 0 1 0 7.5 0 a3.75 3.75 0 1 0 -7.5 0z" fill="black"></path>
            <path d="M1811.25 735 a3.75 3.75 0 1 0 7.5 0 a3.75 3.75 0 1 0 -7.5 0zM1811.25 825 a3.75 3.75 0 1 0 7.5 0 a3.75 3.75 0 1 0 -7.5 0z" fill="black"></path>
            <path d="M641.25 585 a3.75 3.75 0 1 0 7.5 0 a3.75 3.75 0 1 0 -7.5 0zM431.25 465 a3.75 3.75 0 1 0 7.5 0 a3.75 3.75 0 1 0 -7.5 0z" fill="black"></path>
            <path d="M1781.25 105 a3.75 3.75 0 1 0 7.5 0 a3.75 3.75 0 1 0 -7.5 0zM1901.25 105 a3.75 3.75 0 1 0 7.5 0 a3.75 3.75 0 1 0 -7.5 0z" fill="black"></path>
            <path d="M1061.25 15 a3.75 3.75 0 1 0 7.5 0 a3.75 3.75 0 1 0 -7.5 0zM881.25 15 a3.75 3.75 0 1 0 7.5 0 a3.75 3.75 0 1 0 -7.5 0z" fill="black"></path>
            <path d="M491.25 915 a3.75 3.75 0 1 0 7.5 0 a3.75 3.75 0 1 0 -7.5 0zM251.25 975 a3.75 3.75 0 1 0 7.5 0 a3.75 3.75 0 1 0 -7.5 0z" fill="black"></path>
            <path d="M581.25 765 a3.75 3.75 0 1 0 7.5 0 a3.75 3.75 0 1 0 -7.5 0zM701.25 885 a3.75 3.75 0 1 0 7.5 0 a3.75 3.75 0 1 0 -7.5 0z" fill="black"></path>
            <path d="M941.25 945 a3.75 3.75 0 1 0 7.5 0 a3.75 3.75 0 1 0 -7.5 0zM1061.25 1005 a3.75 3.75 0 1 0 7.5 0 a3.75 3.75 0 1 0 -7.5 0z" fill="black"></path>
            <path d="M1511.25 585 a3.75 3.75 0 1 0 7.5 0 a3.75 3.75 0 1 0 -7.5 0zM1571.25 735 a3.75 3.75 0 1 0 7.5 0 a3.75 3.75 0 1 0 -7.5 0z" fill="black"></path>
            <path d="M1661.25 225 a3.75 3.75 0 1 0 7.5 0 a3.75 3.75 0 1 0 -7.5 0zM1661.25 345 a3.75 3.75 0 1 0 7.5 0 a3.75 3.75 0 1 0 -7.5 0z" fill="black"></path>
            <path d="M491.25 405 a3.75 3.75 0 1 0 7.5 0 a3.75 3.75 0 1 0 -7.5 0zM641.25 555 a3.75 3.75 0 1 0 7.5 0 a3.75 3.75 0 1 0 -7.5 0z" fill="black"></path>
            <path d="M161.25 225 a3.75 3.75 0 1 0 7.5 0 a3.75 3.75 0 1 0 -7.5 0zM251.25 465 a3.75 3.75 0 1 0 7.5 0 a3.75 3.75 0 1 0 -7.5 0z" fill="black"></path>
            <path d="M1151.25 495 a3.75 3.75 0 1 0 7.5 0 a3.75 3.75 0 1 0 -7.5 0zM971.25 405 a3.75 3.75 0 1 0 7.5 0 a3.75 3.75 0 1 0 -7.5 0z" fill="black"></path>
            <path d="M1331.25 465 a3.75 3.75 0 1 0 7.5 0 a3.75 3.75 0 1 0 -7.5 0zM1331.25 555 a3.75 3.75 0 1 0 7.5 0 a3.75 3.75 0 1 0 -7.5 0z" fill="black"></path>
            <path d="M521.25 525 a3.75 3.75 0 1 0 7.5 0 a3.75 3.75 0 1 0 -7.5 0zM611.25 585 a3.75 3.75 0 1 0 7.5 0 a3.75 3.75 0 1 0 -7.5 0z" fill="black"></path>
            <path d="M1121.25 465 a3.75 3.75 0 1 0 7.5 0 a3.75 3.75 0 1 0 -7.5 0zM1061.25 525 a3.75 3.75 0 1 0 7.5 0 a3.75 3.75 0 1 0 -7.5 0z" fill="black"></path>
            <path d="M791.25 195 a3.75 3.75 0 1 0 7.5 0 a3.75 3.75 0 1 0 -7.5 0zM851.25 195 a3.75 3.75 0 1 0 7.5 0 a3.75 3.75 0 1 0 -7.5 0z" fill="black"></path>
            <path d="M1241.25 465 a3.75 3.75 0 1 0 7.5 0 a3.75 3.75 0 1 0 -7.5 0zM1301.25 645 a3.75 3.75 0 1 0 7.5 0 a3.75 3.75 0 1 0 -7.5 0z" fill="black"></path>
            <path d="M971.25 765 a3.75 3.75 0 1 0 7.5 0 a3.75 3.75 0 1 0 -7.5 0zM911.25 675 a3.75 3.75 0 1 0 7.5 0 a3.75 3.75 0 1 0 -7.5 0z" fill="black"></path>
            <path d="M1511.25 645 a3.75 3.75 0 1 0 7.5 0 a3.75 3.75 0 1 0 -7.5 0zM1421.25 525 a3.75 3.75 0 1 0 7.5 0 a3.75 3.75 0 1 0 -7.5 0z" fill="black"></path>
            <path d="M701.25 645 a3.75 3.75 0 1 0 7.5 0 a3.75 3.75 0 1 0 -7.5 0zM671.25 585 a3.75 3.75 0 1 0 7.5 0 a3.75 3.75 0 1 0 -7.5 0z" fill="black"></path>
            <path d="M1001.25 495 a3.75 3.75 0 1 0 7.5 0 a3.75 3.75 0 1 0 -7.5 0zM1001.25 405 a3.75 3.75 0 1 0 7.5 0 a3.75 3.75 0 1 0 -7.5 0z" fill="black"></path>
            <path d="M1001.25 135 a3.75 3.75 0 1 0 7.5 0 a3.75 3.75 0 1 0 -7.5 0zM971.25 195 a3.75 3.75 0 1 0 7.5 0 a3.75 3.75 0 1 0 -7.5 0z" fill="black"></path>
            <path d="M401.25 825 a3.75 3.75 0 1 0 7.5 0 a3.75 3.75 0 1 0 -7.5 0zM461.25 885 a3.75 3.75 0 1 0 7.5 0 a3.75 3.75 0 1 0 -7.5 0z" fill="black"></path>
            <path d="M1301.25 75 a3.75 3.75 0 1 0 7.5 0 a3.75 3.75 0 1 0 -7.5 0zM1391.25 45 a3.75 3.75 0 1 0 7.5 0 a3.75 3.75 0 1 0 -7.5 0z" fill="black"></path>
            <path d="M1541.25 315 a3.75 3.75 0 1 0 7.5 0 a3.75 3.75 0 1 0 -7.5 0zM1601.25 165 a3.75 3.75 0 1 0 7.5 0 a3.75 3.75 0 1 0 -7.5 0z" fill="black"></path>
            <path d="M521.25 885 a3.75 3.75 0 1 0 7.5 0 a3.75 3.75 0 1 0 -7.5 0zM581.25 885 a3.75 3.75 0 1 0 7.5 0 a3.75 3.75 0 1 0 -7.5 0z" fill="black"></path>
            <path d="M611.25 75 a3.75 3.75 0 1 0 7.5 0 a3.75 3.75 0 1 0 -7.5 0zM551.25 135 a3.75 3.75 0 1 0 7.5 0 a3.75 3.75 0 1 0 -7.5 0z" fill="black"></path>
            <path d="M1031.25 405 a3.75 3.75 0 1 0 7.5 0 a3.75 3.75 0 1 0 -7.5 0zM1031.25 525 a3.75 3.75 0 1 0 7.5 0 a3.75 3.75 0 1 0 -7.5 0z" fill="black"></path>
            <path d="M1271.25 465 a3.75 3.75 0 1 0 7.5 0 a3.75 3.75 0 1 0 -7.5 0zM1301.25 555 a3.75 3.75 0 1 0 7.5 0 a3.75 3.75 0 1 0 -7.5 0z" fill="black"></path>
            <path d="M1091.25 285 a3.75 3.75 0 1 0 7.5 0 a3.75 3.75 0 1 0 -7.5 0zM1061.25 465 a3.75 3.75 0 1 0 7.5 0 a3.75 3.75 0 1 0 -7.5 0z" fill="black"></path>
            <path d="M761.25 345 a3.75 3.75 0 1 0 7.5 0 a3.75 3.75 0 1 0 -7.5 0zM641.25 255 a3.75 3.75 0 1 0 7.5 0 a3.75 3.75 0 1 0 -7.5 0z" fill="black"></path>
            <path d="M971.25 915 a3.75 3.75 0 1 0 7.5 0 a3.75 3.75 0 1 0 -7.5 0zM881.25 855 a3.75 3.75 0 1 0 7.5 0 a3.75 3.75 0 1 0 -7.5 0z" fill="black"></path>
            <path d="M1061.25 135 a3.75 3.75 0 1 0 7.5 0 a3.75 3.75 0 1 0 -7.5 0zM1061.25 75 a3.75 3.75 0 1 0 7.5 0 a3.75 3.75 0 1 0 -7.5 0z" fill="black"></path>
            <path d="M941.25 915 a3.75 3.75 0 1 0 7.5 0 a3.75 3.75 0 1 0 -7.5 0zM851.25 945 a3.75 3.75 0 1 0 7.5 0 a3.75 3.75 0 1 0 -7.5 0z" fill="black"></path>
            <path d="M401.25 765 a3.75 3.75 0 1 0 7.5 0 a3.75 3.75 0 1 0 -7.5 0zM431.25 705 a3.75 3.75 0 1 0 7.5 0 a3.75 3.75 0 1 0 -7.5 0z" fill="black"></path>
            <path d="M761.25 165 a3.75 3.75 0 1 0 7.5 0 a3.75 3.75 0 1 0 -7.5 0zM761.25 255 a3.75 3.75 0 1 0 7.5 0 a3.75 3.75 0 1 0 -7.5 0z" fill="black"></path>
            <path d="M1061.25 645 a3.75 3.75 0 1 0 7.5 0 a3.75 3.75 0 1 0 -7.5 0zM1001.25 765 a3.75 3.75 0 1 0 7.5 0 a3.75 3.75 0 1 0 -7.5 0z" fill="black"></path>
            <path d="M221.25 375 a3.75 3.75 0 1 0 7.5 0 a3.75 3.75 0 1 0 -7.5 0zM251.25 435 a3.75 3.75 0 1 0 7.5 0 a3.75 3.75 0 1 0 -7.5 0z" fill="black"></path>
            <path d="M881.25 555 a3.75 3.75 0 1 0 7.5 0 a3.75 3.75 0 1 0 -7.5 0zM821.25 585 a3.75 3.75 0 1 0 7.5 0 a3.75 3.75 0 1 0 -7.5 0z" fill="black"></path>
            <path d="M1511.25 975 a3.75 3.75 0 1 0 7.5 0 a3.75 3.75 0 1 0 -7.5 0zM1451.25 1005 a3.75 3.75 0 1 0 7.5 0 a3.75 3.75 0 1 0 -7.5 0z" fill="black"></path>
            <path d="M101.25 705 a3.75 3.75 0 1 0 7.5 0 a3.75 3.75 0 1 0 -7.5 0zM41.25 615 a3.75 3.75 0 1 0 7.5 0 a3.75 3.75 0 1 0 -7.5 0z" fill="black"></path>
            <path d="M1841.25 75 a3.75 3.75 0 1 0 7.5 0 a3.75 3.75 0 1 0 -7.5 0zM1571.25 15 a3.75 3.75 0 1 0 7.5 0 a3.75 3.75 0 1 0 -7.5 0z" fill="black"></path>
            <path d="M1421.25 345 a3.75 3.75 0 1 0 7.5 0 a3.75 3.75 0 1 0 -7.5 0zM1421.25 195 a3.75 3.75 0 1 0 7.5 0 a3.75 3.75 0 1 0 -7.5 0z" fill="black"></path>
            <path d="M251.25 195 a3.75 3.75 0 1 0 7.5 0 a3.75 3.75 0 1 0 -7.5 0zM311.25 255 a3.75 3.75 0 1 0 7.5 0 a3.75 3.75 0 1 0 -7.5 0z" fill="black"></path>
            <path d="M1811.25 705 a3.75 3.75 0 1 0 7.5 0 a3.75 3.75 0 1 0 -7.5 0zM1901.25 795 a3.75 3.75 0 1 0 7.5 0 a3.75 3.75 0 1 0 -7.5 0z" fill="black"></path>
            <path d="M431.25 945 a3.75 3.75 0 1 0 7.5 0 a3.75 3.75 0 1 0 -7.5 0zM371.25 855 a3.75 3.75 0 1 0 7.5 0 a3.75 3.75 0 1 0 -7.5 0z" fill="black"></path>
            <path d="M161.25 315 a3.75 3.75 0 1 0 7.5 0 a3.75 3.75 0 1 0 -7.5 0zM191.25 375 a3.75 3.75 0 1 0 7.5 0 a3.75 3.75 0 1 0 -7.5 0z" fill="black"></path>
            <path d="M1151.25 165 a3.75 3.75 0 1 0 7.5 0 a3.75 3.75 0 1 0 -7.5 0zM1061.25 165 a3.75 3.75 0 1 0 7.5 0 a3.75 3.75 0 1 0 -7.5 0z" fill="black"></path>
            <path d="M41.25 915 a3.75 3.75 0 1 0 7.5 0 a3.75 3.75 0 1 0 -7.5 0zM41.25 795 a3.75 3.75 0 1 0 7.5 0 a3.75 3.75 0 1 0 -7.5 0z" fill="black"></path>
            <path d="M1421.25 285 a3.75 3.75 0 1 0 7.5 0 a3.75 3.75 0 1 0 -7.5 0zM1361.25 315 a3.75 3.75 0 1 0 7.5 0 a3.75 3.75 0 1 0 -7.5 0z" fill="black"></path>
            <path d="M1781.25 885 a3.75 3.75 0 1 0 7.5 0 a3.75 3.75 0 1 0 -7.5 0zM1871.25 945 a3.75 3.75 0 1 0 7.5 0 a3.75 3.75 0 1 0 -7.5 0z" fill="black"></path>
            <path d="M11.25 15 a3.75 3.75 0 1 0 7.5 0 a3.75 3.75 0 1 0 -7.5 0zM71.25 15 a3.75 3.75 0 1 0 7.5 0 a3.75 3.75 0 1 0 -7.5 0z" fill="black"></path>
            <path d="M1001.25 345 a3.75 3.75 0 1 0 7.5 0 a3.75 3.75 0 1 0 -7.5 0zM1061.25 285 a3.75 3.75 0 1 0 7.5 0 a3.75 3.75 0 1 0 -7.5 0z" fill="black"></path>
            <path d="M101.25 585 a3.75 3.75 0 1 0 7.5 0 a3.75 3.75 0 1 0 -7.5 0zM191.25 585 a3.75 3.75 0 1 0 7.5 0 a3.75 3.75 0 1 0 -7.5 0z" fill="black"></path>
            <path d="M401.25 945 a3.75 3.75 0 1 0 7.5 0 a3.75 3.75 0 1 0 -7.5 0zM281.25 945 a3.75 3.75 0 1 0 7.5 0 a3.75 3.75 0 1 0 -7.5 0z" fill="black"></path>
            <path d="M1781.25 675 a3.75 3.75 0 1 0 7.5 0 a3.75 3.75 0 1 0 -7.5 0zM1781.25 795 a3.75 3.75 0 1 0 7.5 0 a3.75 3.75 0 1 0 -7.5 0z" fill="black"></path>
            <path d="M1751.25 15 a3.75 3.75 0 1 0 7.5 0 a3.75 3.75 0 1 0 -7.5 0zM1901.25 45 a3.75 3.75 0 1 0 7.5 0 a3.75 3.75 0 1 0 -7.5 0z" fill="black"></path>
            <path d="M1061.25 825 a3.75 3.75 0 1 0 7.5 0 a3.75 3.75 0 1 0 -7.5 0zM1001.25 885 a3.75 3.75 0 1 0 7.5 0 a3.75 3.75 0 1 0 -7.5 0z" fill="black"></path>
            <path d="M1181.25 915 a3.75 3.75 0 1 0 7.5 0 a3.75 3.75 0 1 0 -7.5 0zM1331.25 885 a3.75 3.75 0 1 0 7.5 0 a3.75 3.75 0 1 0 -7.5 0z" fill="black"></path>
            <path d="M1241.25 45 a3.75 3.75 0 1 0 7.5 0 a3.75 3.75 0 1 0 -7.5 0zM1301.25 135 a3.75 3.75 0 1 0 7.5 0 a3.75 3.75 0 1 0 -7.5 0z" fill="black"></path>
            <path d="M461.25 255 a3.75 3.75 0 1 0 7.5 0 a3.75 3.75 0 1 0 -7.5 0zM401.25 195 a3.75 3.75 0 1 0 7.5 0 a3.75 3.75 0 1 0 -7.5 0z" fill="black"></path>
            <path d="M521.25 195 a3.75 3.75 0 1 0 7.5 0 a3.75 3.75 0 1 0 -7.5 0zM611.25 165 a3.75 3.75 0 1 0 7.5 0 a3.75 3.75 0 1 0 -7.5 0z" fill="black"></path>
            <path d="M401.25 675 a3.75 3.75 0 1 0 7.5 0 a3.75 3.75 0 1 0 -7.5 0zM311.25 645 a3.75 3.75 0 1 0 7.5 0 a3.75 3.75 0 1 0 -7.5 0z" fill="black"></path>
            <path d="M1001.25 255 a3.75 3.75 0 1 0 7.5 0 a3.75 3.75 0 1 0 -7.5 0zM1061.25 225 a3.75 3.75 0 1 0 7.5 0 a3.75 3.75 0 1 0 -7.5 0z" fill="black"></path>
            <path d="M1781.25 525 a3.75 3.75 0 1 0 7.5 0 a3.75 3.75 0 1 0 -7.5 0zM1691.25 585 a3.75 3.75 0 1 0 7.5 0 a3.75 3.75 0 1 0 -7.5 0z" fill="black"></path>
            <path d="M1181.25 795 a3.75 3.75 0 1 0 7.5 0 a3.75 3.75 0 1 0 -7.5 0zM1241.25 885 a3.75 3.75 0 1 0 7.5 0 a3.75 3.75 0 1 0 -7.5 0z" fill="black"></path>
            <path d="M1481.25 345 a3.75 3.75 0 1 0 7.5 0 a3.75 3.75 0 1 0 -7.5 0zM1481.25 135 a3.75 3.75 0 1 0 7.5 0 a3.75 3.75 0 1 0 -7.5 0z" fill="black"></path>
            <path d="M1601.25 885 a3.75 3.75 0 1 0 7.5 0 a3.75 3.75 0 1 0 -7.5 0zM1661.25 885 a3.75 3.75 0 1 0 7.5 0 a3.75 3.75 0 1 0 -7.5 0z" fill="black"></path>
            <path d="M371.25 15 a3.75 3.75 0 1 0 7.5 0 a3.75 3.75 0 1 0 -7.5 0zM461.25 15 a3.75 3.75 0 1 0 7.5 0 a3.75 3.75 0 1 0 -7.5 0z" fill="black"></path>
            <path d="M101.25 555 a3.75 3.75 0 1 0 7.5 0 a3.75 3.75 0 1 0 -7.5 0zM161.25 555 a3.75 3.75 0 1 0 7.5 0 a3.75 3.75 0 1 0 -7.5 0z" fill="black"></path>
            <path d="M521.25 825 a3.75 3.75 0 1 0 7.5 0 a3.75 3.75 0 1 0 -7.5 0zM431.25 825 a3.75 3.75 0 1 0 7.5 0 a3.75 3.75 0 1 0 -7.5 0z" fill="black"></path>
            <path d="M431.25 555 a3.75 3.75 0 1 0 7.5 0 a3.75 3.75 0 1 0 -7.5 0zM401.25 495 a3.75 3.75 0 1 0 7.5 0 a3.75 3.75 0 1 0 -7.5 0z" fill="black"></path>
            <path d="M131.25 735 a3.75 3.75 0 1 0 7.5 0 a3.75 3.75 0 1 0 -7.5 0zM11.25 705 a3.75 3.75 0 1 0 7.5 0 a3.75 3.75 0 1 0 -7.5 0z" fill="black"></path>
            <path d="M761.25 15 a3.75 3.75 0 1 0 7.5 0 a3.75 3.75 0 1 0 -7.5 0zM851.25 45 a3.75 3.75 0 1 0 7.5 0 a3.75 3.75 0 1 0 -7.5 0z" fill="black"></path>
            <path d="M1661.25 465 a3.75 3.75 0 1 0 7.5 0 a3.75 3.75 0 1 0 -7.5 0zM1811.25 375 a3.75 3.75 0 1 0 7.5 0 a3.75 3.75 0 1 0 -7.5 0z" fill="black"></path>
            <path d="M1901.25 765 a3.75 3.75 0 1 0 7.5 0 a3.75 3.75 0 1 0 -7.5 0zM1901.25 585 a3.75 3.75 0 1 0 7.5 0 a3.75 3.75 0 1 0 -7.5 0z" fill="black"></path>
            <path d="M1181.25 885 a3.75 3.75 0 1 0 7.5 0 a3.75 3.75 0 1 0 -7.5 0zM1121.25 765 a3.75 3.75 0 1 0 7.5 0 a3.75 3.75 0 1 0 -7.5 0z" fill="black"></path>
            <path d="M1691.25 255 a3.75 3.75 0 1 0 7.5 0 a3.75 3.75 0 1 0 -7.5 0zM1661.25 135 a3.75 3.75 0 1 0 7.5 0 a3.75 3.75 0 1 0 -7.5 0z" fill="black"></path>
            <path d="M1751.25 165 a3.75 3.75 0 1 0 7.5 0 a3.75 3.75 0 1 0 -7.5 0zM1901.25 135 a3.75 3.75 0 1 0 7.5 0 a3.75 3.75 0 1 0 -7.5 0z" fill="black"></path>
            <path d="M1601.25 765 a3.75 3.75 0 1 0 7.5 0 a3.75 3.75 0 1 0 -7.5 0zM1661.25 765 a3.75 3.75 0 1 0 7.5 0 a3.75 3.75 0 1 0 -7.5 0z" fill="black"></path>
            <path d="M281.25 735 a3.75 3.75 0 1 0 7.5 0 a3.75 3.75 0 1 0 -7.5 0zM251.25 675 a3.75 3.75 0 1 0 7.5 0 a3.75 3.75 0 1 0 -7.5 0z" fill="black"></path>
            <path d="M1901.25 855 a3.75 3.75 0 1 0 7.5 0 a3.75 3.75 0 1 0 -7.5 0zM1841.25 855 a3.75 3.75 0 1 0 7.5 0 a3.75 3.75 0 1 0 -7.5 0z" fill="black"></path>
            <path d="M1691.25 465 a3.75 3.75 0 1 0 7.5 0 a3.75 3.75 0 1 0 -7.5 0zM1781.25 405 a3.75 3.75 0 1 0 7.5 0 a3.75 3.75 0 1 0 -7.5 0z" fill="black"></path>
            <path d="M1091.25 75 a3.75 3.75 0 1 0 7.5 0 a3.75 3.75 0 1 0 -7.5 0zM1121.25 15 a3.75 3.75 0 1 0 7.5 0 a3.75 3.75 0 1 0 -7.5 0z" fill="black"></path>
            <path d="M731.25 135 a3.75 3.75 0 1 0 7.5 0 a3.75 3.75 0 1 0 -7.5 0zM791.25 135 a3.75 3.75 0 1 0 7.5 0 a3.75 3.75 0 1 0 -7.5 0z" fill="black"></path>
            <path d="M671.25 915 a3.75 3.75 0 1 0 7.5 0 a3.75 3.75 0 1 0 -7.5 0zM641.25 1005 a3.75 3.75 0 1 0 7.5 0 a3.75 3.75 0 1 0 -7.5 0z" fill="black"></path>
            <path d="M1151.25 225 a3.75 3.75 0 1 0 7.5 0 a3.75 3.75 0 1 0 -7.5 0zM1091.25 255 a3.75 3.75 0 1 0 7.5 0 a3.75 3.75 0 1 0 -7.5 0z" fill="black"></path>
            <path d="M281.25 255 a3.75 3.75 0 1 0 7.5 0 a3.75 3.75 0 1 0 -7.5 0zM221.25 195 a3.75 3.75 0 1 0 7.5 0 a3.75 3.75 0 1 0 -7.5 0z" fill="black"></path>
            <path d="M191.25 855 a3.75 3.75 0 1 0 7.5 0 a3.75 3.75 0 1 0 -7.5 0zM131.25 825 a3.75 3.75 0 1 0 7.5 0 a3.75 3.75 0 1 0 -7.5 0z" fill="black"></path>
            <path d="M1511.25 165 a3.75 3.75 0 1 0 7.5 0 a3.75 3.75 0 1 0 -7.5 0zM1571.25 255 a3.75 3.75 0 1 0 7.5 0 a3.75 3.75 0 1 0 -7.5 0z" fill="black"></path>
            <path d="M1031.25 975 a3.75 3.75 0 1 0 7.5 0 a3.75 3.75 0 1 0 -7.5 0zM971.25 945 a3.75 3.75 0 1 0 7.5 0 a3.75 3.75 0 1 0 -7.5 0z" fill="black"></path>
            <path d="M911.25 945 a3.75 3.75 0 1 0 7.5 0 a3.75 3.75 0 1 0 -7.5 0zM971.25 1005 a3.75 3.75 0 1 0 7.5 0 a3.75 3.75 0 1 0 -7.5 0z" fill="black"></path>
            <path d="M1901.25 165 a3.75 3.75 0 1 0 7.5 0 a3.75 3.75 0 1 0 -7.5 0zM1781.25 195 a3.75 3.75 0 1 0 7.5 0 a3.75 3.75 0 1 0 -7.5 0z" fill="black"></path>
            <path d="M1601.25 105 a3.75 3.75 0 1 0 7.5 0 a3.75 3.75 0 1 0 -7.5 0zM1541.25 105 a3.75 3.75 0 1 0 7.5 0 a3.75 3.75 0 1 0 -7.5 0z" fill="black"></path>
            <path d="M341.25 15 a3.75 3.75 0 1 0 7.5 0 a3.75 3.75 0 1 0 -7.5 0zM341.25 75 a3.75 3.75 0 1 0 7.5 0 a3.75 3.75 0 1 0 -7.5 0z" fill="black"></path>
            <path d="M761.25 795 a3.75 3.75 0 1 0 7.5 0 a3.75 3.75 0 1 0 -7.5 0zM701.25 735 a3.75 3.75 0 1 0 7.5 0 a3.75 3.75 0 1 0 -7.5 0z" fill="black"></path>
            <path d="M1901.25 15 a3.75 3.75 0 1 0 7.5 0 a3.75 3.75 0 1 0 -7.5 0zM1811.25 15 a3.75 3.75 0 1 0 7.5 0 a3.75 3.75 0 1 0 -7.5 0z" fill="black"></path>
            <path d="M1331.25 435 a3.75 3.75 0 1 0 7.5 0 a3.75 3.75 0 1 0 -7.5 0zM1391.25 465 a3.75 3.75 0 1 0 7.5 0 a3.75 3.75 0 1 0 -7.5 0z" fill="black"></path>
            <path d="M1541.25 705 a3.75 3.75 0 1 0 7.5 0 a3.75 3.75 0 1 0 -7.5 0zM1541.25 645 a3.75 3.75 0 1 0 7.5 0 a3.75 3.75 0 1 0 -7.5 0z" fill="black"></path>
            <path d="M1031.25 645 a3.75 3.75 0 1 0 7.5 0 a3.75 3.75 0 1 0 -7.5 0zM941.25 705 a3.75 3.75 0 1 0 7.5 0 a3.75 3.75 0 1 0 -7.5 0z" fill="black"></path>
            <path d="M131.25 315 a3.75 3.75 0 1 0 7.5 0 a3.75 3.75 0 1 0 -7.5 0zM161.25 255 a3.75 3.75 0 1 0 7.5 0 a3.75 3.75 0 1 0 -7.5 0z" fill="black"></path>
            <path d="M731.25 945 a3.75 3.75 0 1 0 7.5 0 a3.75 3.75 0 1 0 -7.5 0zM671.25 945 a3.75 3.75 0 1 0 7.5 0 a3.75 3.75 0 1 0 -7.5 0z" fill="black"></path>
            <path d="M1781.25 615 a3.75 3.75 0 1 0 7.5 0 a3.75 3.75 0 1 0 -7.5 0zM1841.25 525 a3.75 3.75 0 1 0 7.5 0 a3.75 3.75 0 1 0 -7.5 0z" fill="black"></path>
            <path d="M1151.25 315 a3.75 3.75 0 1 0 7.5 0 a3.75 3.75 0 1 0 -7.5 0zM1121.25 375 a3.75 3.75 0 1 0 7.5 0 a3.75 3.75 0 1 0 -7.5 0z" fill="black"></path>
            <path d="M1211.25 765 a3.75 3.75 0 1 0 7.5 0 a3.75 3.75 0 1 0 -7.5 0zM1151.25 765 a3.75 3.75 0 1 0 7.5 0 a3.75 3.75 0 1 0 -7.5 0z" fill="black"></path>
            <path d="M701.25 315 a3.75 3.75 0 1 0 7.5 0 a3.75 3.75 0 1 0 -7.5 0zM671.25 255 a3.75 3.75 0 1 0 7.5 0 a3.75 3.75 0 1 0 -7.5 0z" fill="black"></path>
            <path d="M1661.25 555 a3.75 3.75 0 1 0 7.5 0 a3.75 3.75 0 1 0 -7.5 0zM1661.25 495 a3.75 3.75 0 1 0 7.5 0 a3.75 3.75 0 1 0 -7.5 0z" fill="black"></path>
            <path d="M1541.25 195 a3.75 3.75 0 1 0 7.5 0 a3.75 3.75 0 1 0 -7.5 0zM1541.25 255 a3.75 3.75 0 1 0 7.5 0 a3.75 3.75 0 1 0 -7.5 0z" fill="black"></path>
            <path d="M1121.25 315 a3.75 3.75 0 1 0 7.5 0 a3.75 3.75 0 1 0 -7.5 0zM1151.25 255 a3.75 3.75 0 1 0 7.5 0 a3.75 3.75 0 1 0 -7.5 0z" fill="black"></path>
        </mask>
    </defs>
</svg>