<svg xmlns="http://www.w3.org/2000/svg" version="1.1" xmlns:xlink="http://www.w3.org/1999/xlink" xmlns:svgjs="http://svgjs.dev/svgjs" width="1440" height="560" preserveAspectRatio="none" viewBox="0 0 1440 560">
    <g mask="url(&quot;#SvgjsMask1426&quot;)" fill="none">
        <g mask="url(&quot;#SvgjsMask1427&quot;)">
            <path d="M787.5 517.5L742.5 472.5M742.5 607.5L742.5 562.5L787.5 517.5L787.5 472.5L787.5 427.5L787.5 382.5L787.5 337.5" stroke="rgba(239, 239, 239, 1)" stroke-width="7.5"></path>
            <path d="M776.25 337.5 a11.25 11.25 0 1 0 22.5 0 a11.25 11.25 0 1 0 -22.5 0zM731.25 472.5 a11.25 11.25 0 1 0 22.5 0 a11.25 11.25 0 1 0 -22.5 0z" fill="rgba(239, 239, 239, 1)"></path>
            <path d="M697.5 472.5L697.5 427.5M742.5 382.5L742.5 337.5L742.5 292.5M697.5 337.5L652.5 292.5M697.5 607.5L697.5 562.5L697.5 517.5L697.5 472.5L742.5 427.5L742.5 382.5L697.5 337.5L697.5 292.5L697.5 247.5" stroke="rgba(255, 146, 0, 1)" stroke-width="7.5"></path>
            <path d="M686.25 247.5 a11.25 11.25 0 1 0 22.5 0 a11.25 11.25 0 1 0 -22.5 0zM686.25 427.5 a11.25 11.25 0 1 0 22.5 0 a11.25 11.25 0 1 0 -22.5 0zM731.25 292.5 a11.25 11.25 0 1 0 22.5 0 a11.25 11.25 0 1 0 -22.5 0zM641.25 292.5 a11.25 11.25 0 1 0 22.5 0 a11.25 11.25 0 1 0 -22.5 0z" fill="rgba(255, 146, 0, 1)"></path>
            <path d="M787.5 607.5L787.5 562.5L832.5 517.5L832.5 472.5L832.5 427.5L832.5 382.5L832.5 337.5L832.5 292.5" stroke="rgba(239, 239, 239, 1)" stroke-width="7.5"></path>
            <path d="M821.25 292.5 a11.25 11.25 0 1 0 22.5 0 a11.25 11.25 0 1 0 -22.5 0z" fill="rgba(239, 239, 239, 1)"></path>
            <path d="M652.5 427.5L652.5 382.5L652.5 337.5M652.5 607.5L652.5 562.5L652.5 517.5L652.5 472.5L652.5 427.5L697.5 382.5" stroke="rgba(255, 146, 0, 1)" stroke-width="7.5"></path>
            <path d="M686.25 382.5 a11.25 11.25 0 1 0 22.5 0 a11.25 11.25 0 1 0 -22.5 0zM641.25 337.5 a11.25 11.25 0 1 0 22.5 0 a11.25 11.25 0 1 0 -22.5 0z" fill="rgba(255, 146, 0, 1)"></path>
            <path d="M877.5 472.5L922.5 427.5L922.5 382.5L922.5 337.5M832.5 607.5L832.5 562.5L877.5 517.5L877.5 472.5L877.5 427.5L877.5 382.5L877.5 337.5" stroke="rgba(255, 146, 0, 1)" stroke-width="7.5"></path>
            <path d="M866.25 337.5 a11.25 11.25 0 1 0 22.5 0 a11.25 11.25 0 1 0 -22.5 0zM911.25 337.5 a11.25 11.25 0 1 0 22.5 0 a11.25 11.25 0 1 0 -22.5 0z" fill="rgba(255, 146, 0, 1)"></path>
            <path d="M607.5 292.5L607.5 247.5L607.5 202.5M562.5 247.5L517.5 202.5M607.5 607.5L607.5 562.5L607.5 517.5L607.5 472.5L607.5 427.5L607.5 382.5L607.5 337.5L607.5 292.5L562.5 247.5L562.5 202.5" stroke="rgba(239, 239, 239, 1)" stroke-width="7.5"></path>
            <path d="M551.25 202.5 a11.25 11.25 0 1 0 22.5 0 a11.25 11.25 0 1 0 -22.5 0zM596.25 202.5 a11.25 11.25 0 1 0 22.5 0 a11.25 11.25 0 1 0 -22.5 0zM506.25 202.5 a11.25 11.25 0 1 0 22.5 0 a11.25 11.25 0 1 0 -22.5 0z" fill="rgba(239, 239, 239, 1)"></path>
            <path d="M877.5 607.5L877.5 562.5L922.5 517.5" stroke="rgba(239, 239, 239, 1)" stroke-width="7.5"></path>
            <path d="M911.25 517.5 a11.25 11.25 0 1 0 22.5 0 a11.25 11.25 0 1 0 -22.5 0z" fill="rgba(239, 239, 239, 1)"></path>
            <path d="M562.5 607.5L562.5 562.5L562.5 517.5L562.5 472.5L562.5 427.5L562.5 382.5L562.5 337.5" stroke="rgba(255, 146, 0, 1)" stroke-width="7.5"></path>
            <path d="M551.25 337.5 a11.25 11.25 0 1 0 22.5 0 a11.25 11.25 0 1 0 -22.5 0z" fill="rgba(255, 146, 0, 1)"></path>
            <path d="M967.5 472.5L1012.5 427.5M967.5 337.5L967.5 292.5L922.5 247.5L922.5 202.5M967.5 382.5L1012.5 337.5L1012.5 292.5L1012.5 247.5M922.5 607.5L922.5 562.5L967.5 517.5L967.5 472.5L967.5 427.5L967.5 382.5L967.5 337.5L922.5 292.5" stroke="rgba(255, 146, 0, 1)" stroke-width="7.5"></path>
            <path d="M911.25 292.5 a11.25 11.25 0 1 0 22.5 0 a11.25 11.25 0 1 0 -22.5 0zM1001.25 427.5 a11.25 11.25 0 1 0 22.5 0 a11.25 11.25 0 1 0 -22.5 0zM911.25 202.5 a11.25 11.25 0 1 0 22.5 0 a11.25 11.25 0 1 0 -22.5 0zM1001.25 247.5 a11.25 11.25 0 1 0 22.5 0 a11.25 11.25 0 1 0 -22.5 0z" fill="rgba(255, 146, 0, 1)"></path>
            <path d="M517.5 517.5L472.5 472.5M517.5 607.5L517.5 562.5L517.5 517.5L517.5 472.5L517.5 427.5" stroke="rgba(239, 239, 239, 1)" stroke-width="7.5"></path>
            <path d="M506.25 427.5 a11.25 11.25 0 1 0 22.5 0 a11.25 11.25 0 1 0 -22.5 0zM461.25 472.5 a11.25 11.25 0 1 0 22.5 0 a11.25 11.25 0 1 0 -22.5 0z" fill="rgba(239, 239, 239, 1)"></path>
            <path d="M1057.5 472.5L1102.5 427.5L1102.5 382.5L1147.5 337.5M1012.5 517.5L1012.5 472.5M1057.5 382.5L1057.5 337.5L1057.5 292.5M967.5 607.5L967.5 562.5L1012.5 517.5L1057.5 472.5L1057.5 427.5L1057.5 382.5L1102.5 337.5" stroke="rgba(255, 146, 0, 1)" stroke-width="7.5"></path>
            <path d="M1091.25 337.5 a11.25 11.25 0 1 0 22.5 0 a11.25 11.25 0 1 0 -22.5 0zM1136.25 337.5 a11.25 11.25 0 1 0 22.5 0 a11.25 11.25 0 1 0 -22.5 0zM1001.25 472.5 a11.25 11.25 0 1 0 22.5 0 a11.25 11.25 0 1 0 -22.5 0zM1046.25 292.5 a11.25 11.25 0 1 0 22.5 0 a11.25 11.25 0 1 0 -22.5 0z" fill="rgba(255, 146, 0, 1)"></path>
            <path d="M472.5 562.5L472.5 517.5M472.5 607.5L472.5 562.5L427.5 517.5" stroke="rgba(239, 239, 239, 1)" stroke-width="7.5"></path>
            <path d="M416.25 517.5 a11.25 11.25 0 1 0 22.5 0 a11.25 11.25 0 1 0 -22.5 0zM461.25 517.5 a11.25 11.25 0 1 0 22.5 0 a11.25 11.25 0 1 0 -22.5 0z" fill="rgba(239, 239, 239, 1)"></path>
            <path d="M382.5 472.5L427.5 427.5L427.5 382.5L427.5 337.5M382.5 517.5L337.5 472.5L337.5 427.5L337.5 382.5L337.5 337.5M382.5 607.5L382.5 562.5L382.5 517.5L382.5 472.5L382.5 427.5L382.5 382.5" stroke="rgba(239, 239, 239, 1)" stroke-width="7.5"></path>
            <path d="M371.25 382.5 a11.25 11.25 0 1 0 22.5 0 a11.25 11.25 0 1 0 -22.5 0zM416.25 337.5 a11.25 11.25 0 1 0 22.5 0 a11.25 11.25 0 1 0 -22.5 0zM326.25 337.5 a11.25 11.25 0 1 0 22.5 0 a11.25 11.25 0 1 0 -22.5 0z" fill="rgba(239, 239, 239, 1)"></path>
        </g>
    </g>
    <defs>
        <mask id="SvgjsMask1426">
            <rect width="1440" height="560" fill="#ffffff"></rect>
        </mask>
        <mask id="SvgjsMask1427">
            <rect width="1440" height="560" fill="white"></rect>
            <path d="M781.87 337.5 a5.63 5.63 0 1 0 11.26 0 a5.63 5.63 0 1 0 -11.26 0zM736.87 472.5 a5.63 5.63 0 1 0 11.26 0 a5.63 5.63 0 1 0 -11.26 0z" fill="black"></path>
            <path d="M691.87 247.5 a5.63 5.63 0 1 0 11.26 0 a5.63 5.63 0 1 0 -11.26 0zM691.87 427.5 a5.63 5.63 0 1 0 11.26 0 a5.63 5.63 0 1 0 -11.26 0zM736.87 292.5 a5.63 5.63 0 1 0 11.26 0 a5.63 5.63 0 1 0 -11.26 0zM646.87 292.5 a5.63 5.63 0 1 0 11.26 0 a5.63 5.63 0 1 0 -11.26 0z" fill="black"></path>
            <path d="M826.87 292.5 a5.63 5.63 0 1 0 11.26 0 a5.63 5.63 0 1 0 -11.26 0z" fill="black"></path>
            <path d="M691.87 382.5 a5.63 5.63 0 1 0 11.26 0 a5.63 5.63 0 1 0 -11.26 0zM646.87 337.5 a5.63 5.63 0 1 0 11.26 0 a5.63 5.63 0 1 0 -11.26 0z" fill="black"></path>
            <path d="M871.87 337.5 a5.63 5.63 0 1 0 11.26 0 a5.63 5.63 0 1 0 -11.26 0zM916.87 337.5 a5.63 5.63 0 1 0 11.26 0 a5.63 5.63 0 1 0 -11.26 0z" fill="black"></path>
            <path d="M556.87 202.5 a5.63 5.63 0 1 0 11.26 0 a5.63 5.63 0 1 0 -11.26 0zM601.87 202.5 a5.63 5.63 0 1 0 11.26 0 a5.63 5.63 0 1 0 -11.26 0zM511.87 202.5 a5.63 5.63 0 1 0 11.26 0 a5.63 5.63 0 1 0 -11.26 0z" fill="black"></path>
            <path d="M916.87 517.5 a5.63 5.63 0 1 0 11.26 0 a5.63 5.63 0 1 0 -11.26 0z" fill="black"></path>
            <path d="M556.87 337.5 a5.63 5.63 0 1 0 11.26 0 a5.63 5.63 0 1 0 -11.26 0z" fill="black"></path>
            <path d="M916.87 292.5 a5.63 5.63 0 1 0 11.26 0 a5.63 5.63 0 1 0 -11.26 0zM1006.87 427.5 a5.63 5.63 0 1 0 11.26 0 a5.63 5.63 0 1 0 -11.26 0zM916.87 202.5 a5.63 5.63 0 1 0 11.26 0 a5.63 5.63 0 1 0 -11.26 0zM1006.87 247.5 a5.63 5.63 0 1 0 11.26 0 a5.63 5.63 0 1 0 -11.26 0z" fill="black"></path>
            <path d="M511.87 427.5 a5.63 5.63 0 1 0 11.26 0 a5.63 5.63 0 1 0 -11.26 0zM466.87 472.5 a5.63 5.63 0 1 0 11.26 0 a5.63 5.63 0 1 0 -11.26 0z" fill="black"></path>
            <path d="M1096.87 337.5 a5.63 5.63 0 1 0 11.26 0 a5.63 5.63 0 1 0 -11.26 0zM1141.87 337.5 a5.63 5.63 0 1 0 11.26 0 a5.63 5.63 0 1 0 -11.26 0zM1006.87 472.5 a5.63 5.63 0 1 0 11.26 0 a5.63 5.63 0 1 0 -11.26 0zM1051.87 292.5 a5.63 5.63 0 1 0 11.26 0 a5.63 5.63 0 1 0 -11.26 0z" fill="black"></path>
            <path d="M421.87 517.5 a5.63 5.63 0 1 0 11.26 0 a5.63 5.63 0 1 0 -11.26 0zM466.87 517.5 a5.63 5.63 0 1 0 11.26 0 a5.63 5.63 0 1 0 -11.26 0z" fill="black"></path>
            <path d="M376.87 382.5 a5.63 5.63 0 1 0 11.26 0 a5.63 5.63 0 1 0 -11.26 0zM421.87 337.5 a5.63 5.63 0 1 0 11.26 0 a5.63 5.63 0 1 0 -11.26 0zM331.87 337.5 a5.63 5.63 0 1 0 11.26 0 a5.63 5.63 0 1 0 -11.26 0z" fill="black"></path>
        </mask>
    </defs>
</svg>